# Blender v2.82 (sub 7) OBJ File: 'testBoard.blend'
# www.blender.org
mtllib Board4Walls.mtl
o Cube_Cube.006
v -1.112546 -0.170108 0.988963
v -1.081331 -0.170108 0.992037
v -1.051316 -0.170108 1.001142
v -1.023654 -0.170108 1.015928
v -0.999409 -0.170108 1.035826
v -0.979511 -0.170108 1.060072
v -0.964725 -0.170108 1.087734
v -0.955620 -0.170108 1.117748
v -0.952546 -0.170108 1.148963
v -0.955620 -0.170108 1.180177
v -0.964725 -0.170108 1.210192
v -0.979511 -0.170108 1.237854
v -0.999409 -0.170108 1.262100
v -1.023654 -0.170108 1.281998
v -1.051316 -0.170108 1.296784
v -1.081331 -0.170108 1.305889
v -1.112546 -0.170108 1.308963
v -1.143760 -0.170108 1.305889
v -1.173775 -0.170108 1.296784
v -1.201437 -0.170108 1.281998
v -1.225683 -0.170108 1.262100
v -1.245581 -0.170108 1.237854
v -1.260366 -0.170108 1.210192
v -1.269471 -0.170108 1.180177
v -1.272546 -0.170108 1.148963
v -1.269471 -0.170108 1.117748
v -1.260366 -0.170108 1.087733
v -1.245581 -0.170108 1.060071
v -1.225683 -0.170108 1.035826
v -1.201437 -0.170108 1.015928
v -1.173775 -0.170108 1.001142
v -1.143760 -0.170108 0.992037
v -1.500000 -0.225000 1.500000
v -1.388999 0.225000 1.388999
v -1.500000 -0.225000 -1.500000
v -1.388999 0.225000 -1.388999
v 1.500000 -0.225000 1.500000
v 1.388999 0.225000 1.388999
v 1.500000 -0.225000 -1.500000
v 1.388999 0.225000 -1.388999
v -1.500000 0.225000 1.500000
v -1.500000 0.225000 -1.500000
v 1.500000 0.225000 -1.500000
v 1.500000 0.225000 1.500000
v -1.388999 -0.065000 1.388999
v -1.388999 -0.065000 -1.388999
v 1.388999 -0.065000 -1.388999
v 1.388999 -0.065000 1.388999
v 0.430689 1.546511 0.206262
v -1.003576 -0.065000 0.301217
v -1.003576 0.175000 0.301217
v -1.003576 -0.065000 0.211217
v -1.003576 0.175000 0.211217
v 1.396424 -0.065000 0.301217
v 1.396424 0.175000 0.301217
v 1.396424 -0.065000 0.211217
v 1.396424 0.175000 0.211217
v -1.396717 -0.065000 0.905528
v -1.396717 0.175000 0.905528
v -1.396717 -0.065000 0.815528
v -1.396717 0.175000 0.815528
v 1.003283 -0.065000 0.905528
v 1.003283 0.175000 0.905528
v 1.003283 -0.065000 0.815528
v 1.003283 0.175000 0.815528
v -1.003576 -0.065000 -0.886779
v -1.003576 0.175000 -0.886779
v -1.003576 -0.065000 -0.976779
v -1.003576 0.175000 -0.976779
v 1.396424 -0.065000 -0.886779
v 1.396424 0.175000 -0.886779
v 1.396424 -0.065000 -0.976779
v 1.396424 0.175000 -0.976779
v -1.399513 -0.065000 -0.305311
v -1.399513 0.175000 -0.305311
v -1.399513 -0.065000 -0.395311
v -1.399513 0.175000 -0.395311
v 1.000487 -0.065000 -0.305311
v 1.000487 0.175000 -0.305311
v 1.000487 -0.065000 -0.395311
v 1.000487 0.175000 -0.395311
v -1.260366 -0.065000 1.087733
v -1.245581 -0.065000 1.060071
v -1.051316 -0.065000 1.001142
v -1.081331 -0.065000 0.992037
v -1.269471 -0.065000 1.117748
v -0.999409 -0.065000 1.035826
v -1.023654 -0.065000 1.281998
v -1.051316 -0.065000 1.296784
v -0.979511 -0.065000 1.060072
v -1.081331 -0.065000 1.305889
v -1.173775 -0.065000 1.296784
v -1.272546 -0.065000 1.148963
v -1.173775 -0.065000 1.001142
v -1.201437 -0.065000 1.281998
v -0.955620 -0.065000 1.180177
v -0.999409 -0.065000 1.262100
v -0.964725 -0.065000 1.210192
v -0.952546 -0.065000 1.148963
v -1.225683 -0.065000 1.035826
v -1.201437 -0.065000 1.015928
v -1.112546 -0.065000 1.308963
v -1.112546 -0.065000 0.988963
v -0.955620 -0.065000 1.117748
v -1.023654 -0.065000 1.015928
v -0.964725 -0.065000 1.087734
v -1.260366 -0.065000 1.210192
v -1.245581 -0.065000 1.237854
v -1.269471 -0.065000 1.180177
v -1.225683 -0.065000 1.262100
v -1.143760 -0.065000 1.305889
v -0.979511 -0.065000 1.237854
v -1.143760 -0.065000 0.992037
vt 1.000000 0.500000
vt 0.968750 0.500000
vt 0.968750 0.565692
vt 1.000000 0.565692
vt 0.937500 0.500000
vt 0.937500 0.565692
vt 0.906250 0.500000
vt 0.906250 0.565692
vt 0.875000 0.500000
vt 0.875000 0.565692
vt 0.843750 0.500000
vt 0.843750 0.565692
vt 0.812500 0.500000
vt 0.812500 0.565692
vt 0.781250 0.500000
vt 0.781250 0.565692
vt 0.750000 0.500000
vt 0.750000 0.565692
vt 0.718750 0.500000
vt 0.718750 0.565692
vt 0.687500 0.500000
vt 0.687500 0.565692
vt 0.656250 0.500000
vt 0.656250 0.565692
vt 0.625000 0.500000
vt 0.625000 0.565692
vt 0.593750 0.500000
vt 0.593750 0.565692
vt 0.562500 0.500000
vt 0.562500 0.565692
vt 0.531250 0.500000
vt 0.531250 0.565692
vt 0.500000 0.500000
vt 0.500000 0.565692
vt 0.468750 0.500000
vt 0.468750 0.565692
vt 0.437500 0.500000
vt 0.437500 0.565692
vt 0.406250 0.500000
vt 0.406250 0.565692
vt 0.375000 0.500000
vt 0.375000 0.565692
vt 0.343750 0.500000
vt 0.343750 0.565692
vt 0.312500 0.500000
vt 0.312500 0.565692
vt 0.281250 0.500000
vt 0.281250 0.565692
vt 0.250000 0.500000
vt 0.250000 0.565692
vt 0.218750 0.500000
vt 0.218750 0.565692
vt 0.187500 0.500000
vt 0.187500 0.565692
vt 0.156250 0.500000
vt 0.156250 0.565692
vt 0.125000 0.500000
vt 0.125000 0.565692
vt 0.093750 0.500000
vt 0.093750 0.565692
vt 0.062500 0.500000
vt 0.062500 0.565692
vt 0.031250 0.500000
vt 0.031250 0.565692
vt 0.000000 0.500000
vt 0.000000 0.565692
vt 0.750000 0.490000
vt 0.703179 0.485389
vt 0.658156 0.471731
vt 0.616663 0.449553
vt 0.580295 0.419706
vt 0.550447 0.383337
vt 0.528269 0.341844
vt 0.514612 0.296822
vt 0.510000 0.250000
vt 0.514611 0.203179
vt 0.528269 0.158156
vt 0.550447 0.116663
vt 0.580294 0.080294
vt 0.616663 0.050447
vt 0.658156 0.028269
vt 0.703178 0.014612
vt 0.750000 0.010000
vt 0.796822 0.014612
vt 0.841844 0.028269
vt 0.883337 0.050447
vt 0.919706 0.080294
vt 0.949553 0.116663
vt 0.971731 0.158156
vt 0.985388 0.203178
vt 0.990000 0.250000
vt 0.985388 0.296822
vt 0.971731 0.341844
vt 0.949553 0.383337
vt 0.919706 0.419706
vt 0.883337 0.449553
vt 0.841844 0.471731
vt 0.796822 0.485388
vt 0.375000 0.000000
vt 0.625000 0.000000
vt 0.625000 0.250000
vt 0.375000 0.250000
vt 0.625000 0.500000
vt 0.375000 0.500000
vt 0.625000 0.750000
vt 0.375000 0.750000
vt 0.625000 1.000000
vt 0.375000 1.000000
vt 0.125000 0.500000
vt 0.125000 0.750000
vt 0.634250 0.740750
vt 0.634250 0.509250
vt 0.634250 0.509250
vt 0.634250 0.740750
vt 0.865750 0.740750
vt 0.865750 0.509250
vt 0.875000 0.500000
vt 0.875000 0.750000
vt 0.865750 0.509250
vt 0.865750 0.740750
vt 0.856045 0.720747
vt 0.855789 0.718146
vt 0.855031 0.715644
vt 0.853798 0.713339
vt 0.852140 0.711319
vt 0.850120 0.709661
vt 0.847815 0.708429
vt 0.845313 0.707670
vt 0.842712 0.707414
vt 0.840111 0.707670
vt 0.837610 0.708429
vt 0.835305 0.709661
vt 0.833284 0.711319
vt 0.831626 0.713339
vt 0.830394 0.715644
vt 0.829635 0.718146
vt 0.829379 0.720747
vt 0.375000 0.000000
vt 0.625000 0.000000
vt 0.625000 0.250000
vt 0.375000 0.250000
vt 0.625000 0.500000
vt 0.375000 0.500000
vt 0.625000 0.750000
vt 0.375000 0.750000
vt 0.625000 1.000000
vt 0.375000 1.000000
vt 0.125000 0.500000
vt 0.125000 0.750000
vt 0.875000 0.500000
vt 0.875000 0.750000
vt 0.375000 0.000000
vt 0.625000 0.000000
vt 0.625000 0.250000
vt 0.375000 0.250000
vt 0.625000 0.500000
vt 0.375000 0.500000
vt 0.625000 0.750000
vt 0.375000 0.750000
vt 0.625000 1.000000
vt 0.375000 1.000000
vt 0.125000 0.500000
vt 0.125000 0.750000
vt 0.875000 0.500000
vt 0.875000 0.750000
vt 0.375000 0.000000
vt 0.625000 0.000000
vt 0.625000 0.250000
vt 0.375000 0.250000
vt 0.625000 0.500000
vt 0.375000 0.500000
vt 0.625000 0.750000
vt 0.375000 0.750000
vt 0.625000 1.000000
vt 0.375000 1.000000
vt 0.125000 0.500000
vt 0.125000 0.750000
vt 0.875000 0.500000
vt 0.875000 0.750000
vt 0.375000 0.000000
vt 0.625000 0.000000
vt 0.625000 0.250000
vt 0.375000 0.250000
vt 0.625000 0.500000
vt 0.375000 0.500000
vt 0.625000 0.750000
vt 0.375000 0.750000
vt 0.625000 1.000000
vt 0.375000 1.000000
vt 0.125000 0.500000
vt 0.125000 0.750000
vt 0.875000 0.500000
vt 0.875000 0.750000
vt 0.829635 0.723348
vt 0.830394 0.725849
vt 0.831626 0.728155
vt 0.833284 0.730175
vt 0.835305 0.731833
vt 0.837610 0.733065
vt 0.840111 0.733824
vt 0.842712 0.734080
vt 0.845313 0.733824
vt 0.847815 0.733065
vt 0.850120 0.731833
vt 0.852140 0.730175
vt 0.853798 0.728155
vt 0.855031 0.725849
vt 0.855789 0.723348
vn -0.0980 -0.0000 0.9952
vn -0.2903 0.0000 0.9569
vn -0.4714 0.0000 0.8819
vn -0.6344 -0.0000 0.7730
vn -0.7730 -0.0000 0.6344
vn -0.8819 0.0000 0.4714
vn -0.9569 0.0000 0.2903
vn -0.9952 0.0000 0.0980
vn -0.9952 0.0000 -0.0980
vn -0.9569 0.0000 -0.2903
vn -0.8819 0.0000 -0.4714
vn -0.7730 0.0000 -0.6344
vn -0.6344 0.0000 -0.7730
vn -0.4714 0.0000 -0.8819
vn -0.2903 0.0000 -0.9569
vn -0.0980 0.0000 -0.9952
vn 0.0980 0.0000 -0.9952
vn 0.2903 0.0000 -0.9569
vn 0.4714 0.0000 -0.8819
vn 0.6344 0.0000 -0.7730
vn 0.7730 0.0000 -0.6344
vn 0.8819 0.0000 -0.4714
vn 0.9569 0.0000 -0.2903
vn 0.9952 0.0000 -0.0980
vn 0.9952 0.0000 0.0980
vn 0.9569 0.0000 0.2903
vn 0.8819 0.0000 0.4714
vn 0.7730 0.0000 0.6344
vn 0.6344 0.0000 0.7730
vn 0.4714 0.0000 0.8819
vn 0.2903 0.0000 0.9569
vn 0.0980 -0.0000 0.9952
vn 0.0000 1.0000 -0.0000
vn -1.0000 0.0000 0.0000
vn 0.0000 0.0000 -1.0000
vn 1.0000 0.0000 0.0000
vn 0.0000 0.0000 1.0000
vn 0.0000 -1.0000 0.0000
usemtl None
s off
f 1/1/1 2/2/1 85/3/1 103/4/1
f 2/2/2 3/5/2 84/6/2 85/3/2
f 3/5/3 4/7/3 105/8/3 84/6/3
f 4/7/4 5/9/4 87/10/4 105/8/4
f 5/9/5 6/11/5 90/12/5 87/10/5
f 6/11/6 7/13/6 106/14/6 90/12/6
f 7/13/7 8/15/7 104/16/7 106/14/7
f 8/15/8 9/17/8 99/18/8 104/16/8
f 9/17/9 10/19/9 96/20/9 99/18/9
f 10/19/10 11/21/10 98/22/10 96/20/10
f 11/21/11 12/23/11 112/24/11 98/22/11
f 12/23/12 13/25/12 97/26/12 112/24/12
f 13/25/13 14/27/13 88/28/13 97/26/13
f 14/27/14 15/29/14 89/30/14 88/28/14
f 15/29/15 16/31/15 91/32/15 89/30/15
f 16/31/16 17/33/16 102/34/16 91/32/16
f 17/33/17 18/35/17 111/36/17 102/34/17
f 18/35/18 19/37/18 92/38/18 111/36/18
f 19/37/19 20/39/19 95/40/19 92/38/19
f 20/39/20 21/41/20 110/42/20 95/40/20
f 21/41/21 22/43/21 108/44/21 110/42/21
f 22/43/22 23/45/22 107/46/22 108/44/22
f 23/45/23 24/47/23 109/48/23 107/46/23
f 24/47/24 25/49/24 93/50/24 109/48/24
f 25/49/25 26/51/25 86/52/25 93/50/25
f 26/51/26 27/53/26 82/54/26 86/52/26
f 27/53/27 28/55/27 83/56/27 82/54/27
f 28/55/28 29/57/28 100/58/28 83/56/28
f 29/57/29 30/59/29 101/60/29 100/58/29
f 30/59/30 31/61/30 94/62/30 101/60/30
f 31/61/31 32/63/31 113/64/31 94/62/31
f 32/63/32 1/65/32 103/66/32 113/64/32
f 1/67/33 32/68/33 31/69/33 30/70/33 29/71/33 28/72/33 27/73/33 26/74/33 25/75/33 24/76/33 23/77/33 22/78/33 21/79/33 20/80/33 19/81/33 18/82/33 17/83/33 16/84/33 15/85/33 14/86/33 13/87/33 12/88/33 11/89/33 10/90/33 9/91/33 8/92/33 7/93/33 6/94/33 5/95/33 4/96/33 3/97/33 2/98/33
f 33/99/34 41/100/34 42/101/34 35/102/34
f 35/102/35 42/101/35 43/103/35 39/104/35
f 39/104/36 43/103/36 44/105/36 37/106/36
f 37/106/37 44/105/37 41/107/37 33/108/37
f 35/109/38 39/104/38 37/106/38 33/110/38
f 38/111/34 40/112/34 47/113/34 48/114/34
f 34/115/33 36/116/33 42/117/33 41/118/33
f 36/116/33 40/112/33 43/103/33 42/117/33
f 40/112/33 38/111/33 44/105/33 43/103/33
f 38/111/33 34/115/33 41/118/33 44/105/33
f 47/113/33 46/119/33 45/120/33 93/121/33 86/122/33 82/123/33 83/124/33 100/125/33 101/126/33 94/127/33 113/128/33 103/129/33 85/130/33 84/131/33 105/132/33 87/133/33 90/134/33 106/135/33 104/136/33 99/137/33 48/114/33
f 36/116/36 34/115/36 45/120/36 46/119/36
f 34/115/35 38/111/35 48/114/35 45/120/35
f 40/112/37 36/116/37 46/119/37 47/113/37
f 50/138/34 51/139/34 53/140/34 52/141/34
f 52/141/35 53/140/35 57/142/35 56/143/35
f 56/143/36 57/142/36 55/144/36 54/145/36
f 54/145/37 55/144/37 51/146/37 50/147/37
f 52/148/38 56/143/38 54/145/38 50/149/38
f 57/142/33 53/150/33 51/151/33 55/144/33
f 58/152/34 59/153/34 61/154/34 60/155/34
f 60/155/35 61/154/35 65/156/35 64/157/35
f 64/157/36 65/156/36 63/158/36 62/159/36
f 62/159/37 63/158/37 59/160/37 58/161/37
f 60/162/38 64/157/38 62/159/38 58/163/38
f 65/156/33 61/164/33 59/165/33 63/158/33
f 66/166/34 67/167/34 69/168/34 68/169/34
f 68/169/35 69/168/35 73/170/35 72/171/35
f 72/171/36 73/170/36 71/172/36 70/173/36
f 70/173/37 71/172/37 67/174/37 66/175/37
f 68/176/38 72/171/38 70/173/38 66/177/38
f 73/170/33 69/178/33 67/179/33 71/172/33
f 74/180/34 75/181/34 77/182/34 76/183/34
f 76/183/35 77/182/35 81/184/35 80/185/35
f 80/185/36 81/184/36 79/186/36 78/187/36
f 78/187/37 79/186/37 75/188/37 74/189/37
f 76/190/38 80/185/38 78/187/38 74/191/38
f 81/184/33 77/192/33 75/193/33 79/186/33
f 48/114/33 99/137/33 96/194/33 98/195/33 112/196/33 97/197/33 88/198/33 89/199/33 91/200/33 102/201/33 111/202/33 92/203/33 95/204/33 110/205/33 108/206/33 107/207/33 109/208/33 93/121/33 45/120/33
