# Blender v2.82 (sub 7) OBJ File: 'testBoard.blend'
# www.blender.org
mtllib Board4Walls.mtl
o Cube.004_Cube.010
v -1.003576 -0.065000 -0.886779
v -1.003576 0.175000 -0.886779
v -1.003576 -0.065000 -0.976779
v -1.003576 0.175000 -0.976779
v 1.396424 -0.065000 -0.886779
v 1.396424 0.175000 -0.886779
v 1.396424 -0.065000 -0.976779
v 1.396424 0.175000 -0.976779
v -1.500000 -0.225000 1.500000
v -1.388999 0.225000 1.388999
v -1.500000 -0.225000 -1.500000
v -1.388999 0.225000 -1.388999
v 1.500000 -0.225000 1.500000
v 1.388999 0.225000 1.388999
v 1.500000 -0.225000 -1.500000
v 1.388999 0.225000 -1.388999
v -1.500000 0.225000 1.500000
v -1.500000 0.225000 -1.500000
v 1.500000 0.225000 -1.500000
v 1.500000 0.225000 1.500000
v -1.388999 -0.065000 1.388999
v -1.388999 -0.065000 -1.388999
v 1.388999 -0.065000 -1.388999
v 1.388999 -0.065000 1.388999
v 0.430689 1.546511 0.206262
v -1.003576 -0.065000 0.301217
v -1.003576 0.175000 0.301217
v -1.003576 -0.065000 0.211217
v -1.003576 0.175000 0.211217
v 1.396424 -0.065000 0.301217
v 1.396424 0.175000 0.301217
v 1.396424 -0.065000 0.211217
v 1.396424 0.175000 0.211217
v -1.396717 -0.065000 0.905528
v -1.396717 0.175000 0.905528
v -1.396717 -0.065000 0.815528
v -1.396717 0.175000 0.815528
v 1.003283 -0.065000 0.905528
v 1.003283 0.175000 0.905528
v 1.003283 -0.065000 0.815528
v 1.003283 0.175000 0.815528
v -1.399513 -0.065000 -0.305311
v -1.399513 0.175000 -0.305311
v -1.399513 -0.065000 -0.395311
v -1.399513 0.175000 -0.395311
v 1.000487 -0.065000 -0.305311
v 1.000487 0.175000 -0.305311
v 1.000487 -0.065000 -0.395311
v 1.000487 0.175000 -0.395311
vt 0.375000 0.000000
vt 0.625000 0.000000
vt 0.625000 0.250000
vt 0.375000 0.250000
vt 0.625000 0.500000
vt 0.375000 0.500000
vt 0.625000 0.750000
vt 0.375000 0.750000
vt 0.625000 1.000000
vt 0.375000 1.000000
vt 0.125000 0.500000
vt 0.125000 0.750000
vt 0.875000 0.500000
vt 0.875000 0.750000
vt 0.375000 0.000000
vt 0.625000 0.000000
vt 0.625000 0.250000
vt 0.375000 0.250000
vt 0.625000 0.500000
vt 0.375000 0.500000
vt 0.625000 0.750000
vt 0.375000 0.750000
vt 0.625000 1.000000
vt 0.375000 1.000000
vt 0.125000 0.500000
vt 0.125000 0.750000
vt 0.634250 0.740750
vt 0.634250 0.509250
vt 0.634250 0.509250
vt 0.634250 0.740750
vt 0.865750 0.740750
vt 0.865750 0.509250
vt 0.875000 0.500000
vt 0.875000 0.750000
vt 0.865750 0.509250
vt 0.865750 0.740750
vt 0.375000 0.000000
vt 0.625000 0.000000
vt 0.625000 0.250000
vt 0.375000 0.250000
vt 0.625000 0.500000
vt 0.375000 0.500000
vt 0.625000 0.750000
vt 0.375000 0.750000
vt 0.625000 1.000000
vt 0.375000 1.000000
vt 0.125000 0.500000
vt 0.125000 0.750000
vt 0.875000 0.500000
vt 0.875000 0.750000
vt 0.375000 0.000000
vt 0.625000 0.000000
vt 0.625000 0.250000
vt 0.375000 0.250000
vt 0.625000 0.500000
vt 0.375000 0.500000
vt 0.625000 0.750000
vt 0.375000 0.750000
vt 0.625000 1.000000
vt 0.375000 1.000000
vt 0.125000 0.500000
vt 0.125000 0.750000
vt 0.875000 0.500000
vt 0.875000 0.750000
vt 0.375000 0.000000
vt 0.625000 0.000000
vt 0.625000 0.250000
vt 0.375000 0.250000
vt 0.625000 0.500000
vt 0.375000 0.500000
vt 0.625000 0.750000
vt 0.375000 0.750000
vt 0.625000 1.000000
vt 0.375000 1.000000
vt 0.125000 0.500000
vt 0.125000 0.750000
vt 0.875000 0.500000
vt 0.875000 0.750000
vn -1.0000 0.0000 0.0000
vn 0.0000 0.0000 -1.0000
vn 1.0000 0.0000 0.0000
vn 0.0000 0.0000 1.0000
vn 0.0000 -1.0000 0.0000
vn 0.0000 1.0000 0.0000
usemtl None
s off
f 1/1/1 2/2/1 4/3/1 3/4/1
f 3/4/2 4/3/2 8/5/2 7/6/2
f 7/6/3 8/5/3 6/7/3 5/8/3
f 5/8/4 6/7/4 2/9/4 1/10/4
f 3/11/5 7/6/5 5/8/5 1/12/5
f 8/5/6 4/13/6 2/14/6 6/7/6
f 9/15/1 17/16/1 18/17/1 11/18/1
f 11/18/2 18/17/2 19/19/2 15/20/2
f 15/20/3 19/19/3 20/21/3 13/22/3
f 13/22/4 20/21/4 17/23/4 9/24/4
f 11/25/5 15/20/5 13/22/5 9/26/5
f 14/27/1 16/28/1 23/29/1 24/30/1
f 10/31/6 12/32/6 18/33/6 17/34/6
f 12/32/6 16/28/6 19/19/6 18/33/6
f 16/28/6 14/27/6 20/21/6 19/19/6
f 14/27/6 10/31/6 17/34/6 20/21/6
f 23/29/6 22/35/6 21/36/6 24/30/6
f 12/32/3 10/31/3 21/36/3 22/35/3
f 10/31/2 14/27/2 24/30/2 21/36/2
f 16/28/4 12/32/4 22/35/4 23/29/4
f 26/37/1 27/38/1 29/39/1 28/40/1
f 28/40/2 29/39/2 33/41/2 32/42/2
f 32/42/3 33/41/3 31/43/3 30/44/3
f 30/44/4 31/43/4 27/45/4 26/46/4
f 28/47/5 32/42/5 30/44/5 26/48/5
f 33/41/6 29/49/6 27/50/6 31/43/6
f 34/51/1 35/52/1 37/53/1 36/54/1
f 36/54/2 37/53/2 41/55/2 40/56/2
f 40/56/3 41/55/3 39/57/3 38/58/3
f 38/58/4 39/57/4 35/59/4 34/60/4
f 36/61/5 40/56/5 38/58/5 34/62/5
f 41/55/6 37/63/6 35/64/6 39/57/6
f 42/65/1 43/66/1 45/67/1 44/68/1
f 44/68/2 45/67/2 49/69/2 48/70/2
f 48/70/3 49/69/3 47/71/3 46/72/3
f 46/72/4 47/71/4 43/73/4 42/74/4
f 44/75/5 48/70/5 46/72/5 42/76/5
f 49/69/6 45/77/6 43/78/6 47/71/6
