# Blender v2.82 (sub 7) OBJ File: 'lvl1.blend'
# www.blender.org
mtllib Board1.mtl
o Cube
v -1.046003 -0.120834 -0.150000
v -1.016739 -0.120834 -0.147118
v -0.988600 -0.120834 -0.138582
v -0.962667 -0.120834 -0.124720
v -0.939937 -0.120834 -0.106066
v -0.921282 -0.120834 -0.083336
v -0.907421 -0.120834 -0.057403
v -0.898885 -0.120834 -0.029264
v -0.896003 -0.120834 -0.000000
v -0.898885 -0.120834 0.029264
v -0.907421 -0.120834 0.057402
v -0.921282 -0.120834 0.083336
v -0.939937 -0.120834 0.106066
v -0.962667 -0.120834 0.124720
v -0.988600 -0.120834 0.138582
v -1.016739 -0.120834 0.147118
v -1.046003 -0.120834 0.150000
v -1.075266 -0.120834 0.147118
v -1.103405 -0.120834 0.138582
v -1.129338 -0.120834 0.124720
v -1.152069 -0.120834 0.106066
v -1.170723 -0.120834 0.083335
v -1.184585 -0.120834 0.057402
v -1.193121 -0.120834 0.029263
v -1.196003 -0.120834 -0.000000
v -1.193121 -0.120834 -0.029264
v -1.184585 -0.120834 -0.057403
v -1.170723 -0.120834 -0.083336
v -1.152069 -0.120834 -0.106066
v -1.129338 -0.120834 -0.124721
v -1.103405 -0.120834 -0.138582
v -1.075266 -0.120834 -0.147118
v 1.235000 0.156000 -0.540000
v 1.300000 -0.156000 -0.600000
v 1.235000 0.156000 0.540000
v 1.300000 -0.156000 0.600000
v -1.235000 0.156000 -0.540000
v -1.300000 -0.156000 -0.600000
v -1.235000 0.156000 0.540000
v -1.300000 -0.156000 0.600000
v 1.300000 0.156000 0.600000
v -1.300000 0.156000 0.600000
v 1.300000 0.156000 -0.600000
v -1.300000 0.156000 -0.600000
v 1.235000 -0.044000 0.540000
v -1.235000 -0.044000 0.540000
v 1.235000 -0.044000 -0.540000
v -1.235000 -0.044000 -0.540000
v -1.184585 -0.044000 -0.057403
v -1.170723 -0.044000 -0.083336
v -0.988600 -0.044000 -0.138582
v -1.016739 -0.044000 -0.147118
v -1.193120 -0.044000 -0.029264
v -0.939937 -0.044000 -0.106066
v -0.962667 -0.044000 0.124720
v -0.988600 -0.044000 0.138582
v -0.921282 -0.044000 -0.083336
v -1.016739 -0.044000 0.147118
v -1.103405 -0.044000 0.138582
v -1.196003 -0.044000 -0.000000
v -1.103405 -0.044000 -0.138582
v -1.129338 -0.044000 0.124720
v -0.898885 -0.044000 0.029264
v -0.939937 -0.044000 0.106066
v -0.907421 -0.044000 0.057402
v -0.896003 -0.044000 -0.000000
v -1.152069 -0.044000 -0.106066
v -1.129338 -0.044000 -0.124721
v -1.046003 -0.044000 0.150000
v -1.046003 -0.044000 -0.150000
v -0.898885 -0.044000 -0.029264
v -0.962667 -0.044000 -0.124720
v -0.907421 -0.044000 -0.057403
v -1.184585 -0.044000 0.057402
v -1.170723 -0.044000 0.083335
v -1.193121 -0.044000 0.029263
v -1.152069 -0.044000 0.106066
v -1.075266 -0.044000 0.147118
v -0.921282 -0.044000 0.083336
v -1.075266 -0.044000 -0.147118
vt 1.000000 0.500000
vt 0.968750 0.500000
vt 0.968750 0.596043
vt 1.000000 0.596043
vt 0.937500 0.500000
vt 0.937500 0.596043
vt 0.906250 0.500000
vt 0.906250 0.596043
vt 0.875000 0.500000
vt 0.875000 0.596043
vt 0.843750 0.500000
vt 0.843750 0.596043
vt 0.812500 0.500000
vt 0.812500 0.596043
vt 0.781250 0.500000
vt 0.781250 0.596043
vt 0.750000 0.500000
vt 0.750000 0.596043
vt 0.718750 0.500000
vt 0.718750 0.596043
vt 0.687500 0.500000
vt 0.687500 0.596043
vt 0.656250 0.500000
vt 0.656250 0.596043
vt 0.625000 0.500000
vt 0.625000 0.596043
vt 0.593750 0.500000
vt 0.593750 0.596043
vt 0.562500 0.500000
vt 0.562500 0.596043
vt 0.531250 0.500000
vt 0.531250 0.596043
vt 0.500000 0.500000
vt 0.500000 0.596043
vt 0.468750 0.500000
vt 0.468750 0.596043
vt 0.437500 0.500000
vt 0.437500 0.596043
vt 0.406250 0.500000
vt 0.406250 0.596043
vt 0.375000 0.500000
vt 0.375000 0.596043
vt 0.343750 0.500000
vt 0.343750 0.596043
vt 0.312500 0.500000
vt 0.312500 0.596043
vt 0.281250 0.500000
vt 0.281250 0.596043
vt 0.250000 0.500000
vt 0.250000 0.596043
vt 0.218750 0.500000
vt 0.218750 0.596043
vt 0.187500 0.500000
vt 0.187500 0.596043
vt 0.156250 0.500000
vt 0.156250 0.596043
vt 0.125000 0.500000
vt 0.125000 0.596043
vt 0.093750 0.500000
vt 0.093750 0.596043
vt 0.062500 0.500000
vt 0.062500 0.596043
vt 0.031250 0.500000
vt 0.031250 0.596043
vt 0.000000 0.500000
vt 0.000000 0.596043
vt 0.750000 0.490000
vt 0.703179 0.485389
vt 0.658156 0.471731
vt 0.616663 0.449553
vt 0.580295 0.419706
vt 0.550447 0.383337
vt 0.528269 0.341844
vt 0.514612 0.296822
vt 0.510000 0.250000
vt 0.514611 0.203179
vt 0.528269 0.158156
vt 0.550447 0.116663
vt 0.580294 0.080294
vt 0.616663 0.050447
vt 0.658156 0.028269
vt 0.703178 0.014612
vt 0.750000 0.010000
vt 0.796822 0.014612
vt 0.841844 0.028269
vt 0.883337 0.050447
vt 0.919706 0.080294
vt 0.949553 0.116663
vt 0.971731 0.158156
vt 0.985388 0.203178
vt 0.990000 0.250000
vt 0.985388 0.296822
vt 0.971731 0.341844
vt 0.949553 0.383337
vt 0.919706 0.419706
vt 0.883337 0.449553
vt 0.841844 0.471731
vt 0.796822 0.485388
vt 0.868750 0.512500
vt 0.868750 0.737500
vt 0.868750 0.737500
vt 0.868750 0.512500
vt 0.375000 0.750000
vt 0.625000 0.750000
vt 0.625000 1.000000
vt 0.375000 1.000000
vt 0.375000 0.000000
vt 0.625000 0.000000
vt 0.625000 0.250000
vt 0.375000 0.250000
vt 0.125000 0.500000
vt 0.375000 0.500000
vt 0.125000 0.750000
vt 0.625000 0.500000
vt 0.631250 0.737500
vt 0.875000 0.750000
vt 0.631250 0.512500
vt 0.875000 0.500000
vt 0.631250 0.512500
vt 0.865000 0.625000
vt 0.864723 0.618903
vt 0.863902 0.613041
vt 0.862570 0.607638
vt 0.860776 0.602903
vt 0.858590 0.599017
vt 0.856097 0.596129
vt 0.853391 0.594350
vt 0.850577 0.593750
vt 0.847763 0.594350
vt 0.845058 0.596129
vt 0.842564 0.599017
vt 0.840379 0.602903
vt 0.838585 0.607638
vt 0.837252 0.613041
vt 0.836431 0.618903
vt 0.836154 0.625000
vt 0.631250 0.737500
vt 0.836431 0.631097
vt 0.837252 0.636959
vt 0.838585 0.642362
vt 0.840378 0.647097
vt 0.842564 0.650983
vt 0.845058 0.653871
vt 0.847763 0.655650
vt 0.850577 0.656250
vt 0.853391 0.655649
vt 0.856097 0.653871
vt 0.858590 0.650983
vt 0.860776 0.647097
vt 0.862570 0.642362
vt 0.863902 0.636959
vt 0.864723 0.631097
vn -0.0980 0.0000 0.9952
vn -0.2903 0.0000 0.9569
vn -0.4714 0.0000 0.8819
vn -0.6344 0.0000 0.7730
vn -0.7730 0.0000 0.6344
vn -0.8819 0.0000 0.4714
vn -0.9569 0.0000 0.2903
vn -0.9952 0.0000 0.0980
vn -0.9952 0.0000 -0.0980
vn -0.9569 0.0000 -0.2903
vn -0.8819 0.0000 -0.4714
vn -0.7730 0.0000 -0.6344
vn -0.6344 0.0000 -0.7730
vn -0.4714 0.0000 -0.8819
vn -0.2903 0.0000 -0.9569
vn -0.0980 -0.0000 -0.9952
vn 0.0980 -0.0000 -0.9952
vn 0.2903 0.0000 -0.9569
vn 0.4714 0.0000 -0.8819
vn 0.6344 0.0000 -0.7730
vn 0.7730 0.0000 -0.6344
vn 0.8819 0.0000 -0.4714
vn 0.9569 0.0000 -0.2903
vn 0.9952 0.0000 -0.0980
vn 0.9952 0.0000 0.0980
vn 0.9569 0.0000 0.2903
vn 0.8819 0.0000 0.4714
vn 0.7730 0.0000 0.6344
vn 0.6344 -0.0000 0.7730
vn 0.4714 0.0000 0.8819
vn 0.2903 -0.0000 0.9569
vn 0.0980 -0.0000 0.9952
vn 0.0000 1.0000 -0.0000
vn 1.0000 0.0000 0.0000
vn 0.0000 0.0000 1.0000
vn -1.0000 0.0000 0.0000
vn 0.0000 -1.0000 0.0000
vn 0.0000 0.0000 -1.0000
usemtl Material
s off
f 1/1/1 2/2/1 52/3/1 70/4/1
f 2/2/2 3/5/2 51/6/2 52/3/2
f 3/5/3 4/7/3 72/8/3 51/6/3
f 4/7/4 5/9/4 54/10/4 72/8/4
f 5/9/5 6/11/5 57/12/5 54/10/5
f 6/11/6 7/13/6 73/14/6 57/12/6
f 7/13/7 8/15/7 71/16/7 73/14/7
f 8/15/8 9/17/8 66/18/8 71/16/8
f 9/17/9 10/19/9 63/20/9 66/18/9
f 10/19/10 11/21/10 65/22/10 63/20/10
f 11/21/11 12/23/11 79/24/11 65/22/11
f 12/23/12 13/25/12 64/26/12 79/24/12
f 13/25/13 14/27/13 55/28/13 64/26/13
f 14/27/14 15/29/14 56/30/14 55/28/14
f 15/29/15 16/31/15 58/32/15 56/30/15
f 16/31/16 17/33/16 69/34/16 58/32/16
f 17/33/17 18/35/17 78/36/17 69/34/17
f 18/35/18 19/37/18 59/38/18 78/36/18
f 19/37/19 20/39/19 62/40/19 59/38/19
f 20/39/20 21/41/20 77/42/20 62/40/20
f 21/41/21 22/43/21 75/44/21 77/42/21
f 22/43/22 23/45/22 74/46/22 75/44/22
f 23/45/23 24/47/23 76/48/23 74/46/23
f 24/47/24 25/49/24 60/50/24 76/48/24
f 25/49/25 26/51/25 53/52/25 60/50/25
f 26/51/26 27/53/26 49/54/26 53/52/26
f 27/53/27 28/55/27 50/56/27 49/54/27
f 28/55/28 29/57/28 67/58/28 50/56/28
f 29/57/29 30/59/29 68/60/29 67/58/29
f 30/59/30 31/61/30 61/62/30 68/60/30
f 31/61/31 32/63/31 80/64/31 61/62/31
f 32/63/32 1/65/32 70/66/32 80/64/32
f 1/67/33 32/68/33 31/69/33 30/70/33 29/71/33 28/72/33 27/73/33 26/74/33 25/75/33 24/76/33 23/77/33 22/78/33 21/79/33 20/80/33 19/81/33 18/82/33 17/83/33 16/84/33 15/85/33 14/86/33 13/87/33 12/88/33 11/89/33 10/90/33 9/91/33 8/92/33 7/93/33 6/94/33 5/95/33 4/96/33 3/97/33 2/98/33
f 37/99/34 39/100/34 46/101/34 48/102/34
f 36/103/35 41/104/35 42/105/35 40/106/35
f 40/107/36 42/108/36 44/109/36 38/110/36
f 38/111/37 34/112/37 36/103/37 40/113/37
f 34/112/34 43/114/34 41/104/34 36/103/34
f 38/110/38 44/109/38 43/114/38 34/112/38
f 35/115/33 39/100/33 42/116/33 41/104/33
f 33/117/33 35/115/33 41/104/33 43/114/33
f 39/100/33 37/99/33 44/118/33 42/116/33
f 37/99/33 33/117/33 43/114/33 44/118/33
f 47/119/33 48/102/33 60/120/33 53/121/33 49/122/33 50/123/33 67/124/33 68/125/33 61/126/33 80/127/33 70/128/33 52/129/33 51/130/33 72/131/33 54/132/33 57/133/33 73/134/33 71/135/33 66/136/33
f 39/100/38 35/115/38 45/137/38 46/101/38
f 33/117/35 37/99/35 48/102/35 47/119/35
f 35/115/36 33/117/36 47/119/36 45/137/36
f 66/136/33 63/138/33 65/139/33 79/140/33 64/141/33 55/142/33 56/143/33 58/144/33 69/145/33 78/146/33 59/147/33 62/148/33 77/149/33 75/150/33 74/151/33 76/152/33 60/120/33 48/102/33 46/101/33 45/137/33 47/119/33
