# Blender v2.82 (sub 7) OBJ File: 'lvl2.blend'
# www.blender.org
mtllib Board2.mtl
o Cube
v -1.046003 -0.083049 -0.150000
v -1.016739 -0.083049 -0.147118
v -0.988600 -0.083049 -0.138582
v -0.962667 -0.083049 -0.124720
v -0.939937 -0.083049 -0.106066
v -0.921282 -0.083049 -0.083336
v -0.907421 -0.083049 -0.057403
v -0.898885 -0.083049 -0.029264
v -0.896003 -0.083049 -0.000000
v -0.898885 -0.083049 0.029264
v -0.907421 -0.083049 0.057402
v -0.921282 -0.083049 0.083336
v -0.939937 -0.083049 0.106066
v -0.962667 -0.083049 0.124720
v -0.988600 -0.083049 0.138582
v -1.016739 -0.083049 0.147118
v -1.046003 -0.083049 0.150000
v -1.075266 -0.083049 0.147118
v -1.103405 -0.083049 0.138582
v -1.129338 -0.083049 0.124720
v -1.152069 -0.083049 0.106066
v -1.170723 -0.083049 0.083335
v -1.184585 -0.083049 0.057402
v -1.193121 -0.083049 0.029263
v -1.196003 -0.083049 -0.000000
v -1.193121 -0.083049 -0.029264
v -1.184585 -0.083049 -0.057403
v -1.170723 -0.083049 -0.083336
v -1.152069 -0.083049 -0.106066
v -1.129338 -0.083049 -0.124721
v -1.103405 -0.083049 -0.138582
v -1.075266 -0.083049 -0.147118
v 1.235000 0.193786 -0.540000
v 1.300000 -0.118214 -0.600000
v 1.235000 0.193786 0.540000
v 1.300000 -0.118214 0.600000
v -1.235000 0.193786 -0.540000
v -1.300000 -0.118214 -0.600000
v -1.235000 0.193786 0.540000
v -1.300000 -0.118214 0.600000
v 1.300000 0.193786 0.600000
v -1.300000 0.193786 0.600000
v 1.300000 0.193786 -0.600000
v -1.300000 0.193786 -0.600000
v 1.235000 -0.006214 0.540000
v -1.235000 -0.006214 0.540000
v 1.235000 -0.006214 -0.540000
v -1.235000 -0.006214 -0.540000
v -1.184585 -0.006214 -0.057403
v -1.170723 -0.006214 -0.083336
v -0.988600 -0.006214 -0.138582
v -1.016739 -0.006214 -0.147118
v -1.193120 -0.006214 -0.029264
v -0.939937 -0.006214 -0.106066
v -0.962667 -0.006214 0.124720
v -0.988600 -0.006214 0.138582
v -0.921282 -0.006214 -0.083336
v -1.016739 -0.006214 0.147118
v -1.103405 -0.006214 0.138582
v -1.196003 -0.006214 -0.000000
v -1.103405 -0.006214 -0.138582
v -1.129338 -0.006214 0.124720
v -0.898885 -0.006214 0.029264
v -0.939937 -0.006214 0.106066
v -0.907421 -0.006214 0.057402
v -0.896003 -0.006214 -0.000000
v -1.152069 -0.006214 -0.106066
v -1.129338 -0.006214 -0.124721
v -1.046003 -0.006214 0.150000
v -1.046003 -0.006214 -0.150000
v -0.898885 -0.006214 -0.029264
v -0.962667 -0.006214 -0.124720
v -0.907421 -0.006214 -0.057403
v -1.184585 -0.006214 0.057402
v -1.170723 -0.006214 0.083335
v -1.193121 -0.006214 0.029263
v -1.152069 -0.006214 0.106066
v -1.075266 -0.006214 0.147118
v -0.921282 -0.006214 0.083336
v -1.075266 -0.006214 -0.147118
v -0.138582 -0.118214 -0.057403
v -0.138582 -0.006214 -0.057403
v -0.124720 -0.118214 -0.083336
v -0.124720 -0.006214 -0.083336
v 0.057403 -0.118214 -0.138582
v 0.057403 -0.006214 -0.138582
v 0.029264 -0.118214 -0.147118
v 0.029264 -0.006214 -0.147118
v -0.147118 -0.118214 -0.029264
v -0.147118 -0.006214 -0.029264
v 0.106066 -0.118214 -0.106066
v 0.106066 -0.006214 -0.106066
v 0.083336 -0.118214 0.124720
v 0.083336 -0.006214 0.124720
v 0.057402 -0.118214 0.138582
v 0.057402 -0.006214 0.138582
v 0.124720 -0.118214 -0.083336
v 0.124720 -0.006214 -0.083336
v 0.029264 -0.118214 0.147118
v 0.029264 -0.006214 0.147118
v -0.057403 -0.118214 0.138582
v -0.057403 -0.006214 0.138582
v -0.150000 -0.118214 -0.000000
v -0.150000 -0.006214 -0.000000
v -0.057402 -0.118214 -0.138582
v -0.057402 -0.006214 -0.138582
v -0.083336 -0.118214 0.124720
v -0.083336 -0.006214 0.124720
v 0.147118 -0.118214 0.029264
v 0.147118 -0.006214 0.029264
v 0.106066 -0.118214 0.106066
v 0.106066 -0.006214 0.106066
v 0.138582 -0.118214 0.057402
v 0.138582 -0.006214 0.057402
v 0.150000 -0.118214 -0.000000
v 0.150000 -0.006214 -0.000000
v -0.106066 -0.118214 -0.106066
v -0.106066 -0.006214 -0.106066
v -0.083335 -0.118214 -0.124721
v -0.083335 -0.006214 -0.124721
v -0.000000 -0.118214 0.150000
v -0.000000 -0.006214 0.150000
v 0.000000 -0.118214 -0.150000
v 0.000000 -0.006214 -0.150000
v 0.147118 -0.118214 -0.029264
v 0.147118 -0.006214 -0.029264
v 0.083336 -0.118214 -0.124720
v 0.083336 -0.006214 -0.124720
v 0.138582 -0.118214 -0.057403
v 0.138582 -0.006214 -0.057403
v -0.138582 -0.118214 0.057402
v -0.138582 -0.006214 0.057402
v -0.124721 -0.118214 0.083335
v -0.124720 -0.006214 0.083335
v -0.147118 -0.118214 0.029263
v -0.147118 -0.006214 0.029263
v -0.106066 -0.118214 0.106066
v -0.106066 -0.006214 0.106066
v -0.029264 -0.118214 0.147118
v -0.029264 -0.006214 0.147118
v 0.124720 -0.118214 0.083336
v 0.124720 -0.006214 0.083336
v -0.029263 -0.118214 -0.147118
v -0.029263 -0.006214 -0.147118
vt 1.000000 0.500000
vt 0.968750 0.500000
vt 0.968750 0.596043
vt 1.000000 0.596043
vt 0.937500 0.500000
vt 0.937500 0.596043
vt 0.906250 0.500000
vt 0.906250 0.596043
vt 0.875000 0.500000
vt 0.875000 0.596043
vt 0.843750 0.500000
vt 0.843750 0.596043
vt 0.812500 0.500000
vt 0.812500 0.596043
vt 0.781250 0.500000
vt 0.781250 0.596043
vt 0.750000 0.500000
vt 0.750000 0.596043
vt 0.718750 0.500000
vt 0.718750 0.596043
vt 0.687500 0.500000
vt 0.687500 0.596043
vt 0.656250 0.500000
vt 0.656250 0.596043
vt 0.625000 0.500000
vt 0.625000 0.596043
vt 0.593750 0.500000
vt 0.593750 0.596043
vt 0.562500 0.500000
vt 0.562500 0.596043
vt 0.531250 0.500000
vt 0.531250 0.596043
vt 0.500000 0.500000
vt 0.500000 0.596043
vt 0.468750 0.500000
vt 0.468750 0.596043
vt 0.437500 0.500000
vt 0.437500 0.596043
vt 0.406250 0.500000
vt 0.406250 0.596043
vt 0.375000 0.500000
vt 0.375000 0.596043
vt 0.343750 0.500000
vt 0.343750 0.596043
vt 0.312500 0.500000
vt 0.312500 0.596043
vt 0.281250 0.500000
vt 0.281250 0.596043
vt 0.250000 0.500000
vt 0.250000 0.596043
vt 0.218750 0.500000
vt 0.218750 0.596043
vt 0.187500 0.500000
vt 0.187500 0.596043
vt 0.156250 0.500000
vt 0.156250 0.596043
vt 0.125000 0.500000
vt 0.125000 0.596043
vt 0.093750 0.500000
vt 0.093750 0.596043
vt 0.062500 0.500000
vt 0.062500 0.596043
vt 0.031250 0.500000
vt 0.031250 0.596043
vt 0.000000 0.500000
vt 0.000000 0.596043
vt 0.750000 0.490000
vt 0.703179 0.485389
vt 0.658156 0.471731
vt 0.616663 0.449553
vt 0.580295 0.419706
vt 0.550447 0.383337
vt 0.528269 0.341844
vt 0.514612 0.296822
vt 0.510000 0.250000
vt 0.514611 0.203179
vt 0.528269 0.158156
vt 0.550447 0.116663
vt 0.580294 0.080294
vt 0.616663 0.050447
vt 0.658156 0.028269
vt 0.703178 0.014612
vt 0.750000 0.010000
vt 0.796822 0.014612
vt 0.841844 0.028269
vt 0.883337 0.050447
vt 0.919706 0.080294
vt 0.949553 0.116663
vt 0.971731 0.158156
vt 0.985388 0.203178
vt 0.990000 0.250000
vt 0.985388 0.296822
vt 0.971731 0.341844
vt 0.949553 0.383337
vt 0.919706 0.419706
vt 0.883337 0.449553
vt 0.841844 0.471731
vt 0.796822 0.485388
vt 0.868750 0.512500
vt 0.868750 0.737500
vt 0.868750 0.737500
vt 0.868750 0.512500
vt 0.375000 0.750000
vt 0.625000 0.750000
vt 0.625000 1.000000
vt 0.375000 1.000000
vt 0.375000 0.000000
vt 0.625000 0.000000
vt 0.625000 0.250000
vt 0.375000 0.250000
vt 0.125000 0.500000
vt 0.375000 0.500000
vt 0.264423 0.625000
vt 0.264146 0.618903
vt 0.263325 0.613041
vt 0.261992 0.607638
vt 0.260199 0.602903
vt 0.258013 0.599017
vt 0.255519 0.596129
vt 0.252814 0.594350
vt 0.250000 0.593750
vt 0.247186 0.594351
vt 0.244481 0.596129
vt 0.241987 0.599016
vt 0.239801 0.602903
vt 0.238008 0.607638
vt 0.236675 0.613041
vt 0.235854 0.618903
vt 0.235577 0.625000
vt 0.625000 0.500000
vt 0.631250 0.737500
vt 0.875000 0.750000
vt 0.631250 0.512500
vt 0.875000 0.500000
vt 0.631250 0.512500
vt 0.865000 0.625000
vt 0.864723 0.618903
vt 0.863902 0.613041
vt 0.862570 0.607638
vt 0.860776 0.602903
vt 0.858590 0.599017
vt 0.856097 0.596129
vt 0.853391 0.594350
vt 0.850577 0.593750
vt 0.847763 0.594350
vt 0.845058 0.596129
vt 0.842564 0.599017
vt 0.840379 0.602903
vt 0.838585 0.607638
vt 0.837252 0.613041
vt 0.836431 0.618903
vt 0.836154 0.625000
vt 0.631250 0.737500
vt 0.764423 0.625000
vt 0.764146 0.618903
vt 0.763325 0.613041
vt 0.761992 0.607638
vt 0.760199 0.602903
vt 0.758014 0.599017
vt 0.755519 0.596128
vt 0.752813 0.594350
vt 0.750001 0.593751
vt 0.747186 0.594350
vt 0.744481 0.596129
vt 0.741987 0.599017
vt 0.739802 0.602903
vt 0.738007 0.607638
vt 0.736674 0.613041
vt 0.735854 0.618903
vt 0.735576 0.625000
vt 0.718750 0.555000
vt 0.718750 0.695000
vt 0.750000 0.695000
vt 0.750000 0.555000
vt 0.625000 0.555000
vt 0.625000 0.695000
vt 0.656250 0.695000
vt 0.656250 0.555000
vt 0.687500 0.695000
vt 0.687500 0.555000
vt 0.218750 0.555000
vt 0.218750 0.695000
vt 0.250000 0.695000
vt 0.250000 0.555000
vt 0.781250 0.555000
vt 0.781250 0.695000
vt 0.812500 0.695000
vt 0.812500 0.555000
vt 0.843750 0.555000
vt 0.843750 0.695000
vt 0.875000 0.695000
vt 0.875000 0.555000
vt 0.000000 0.555000
vt 0.000000 0.695000
vt 0.031250 0.695000
vt 0.031250 0.555000
vt 0.468750 0.555000
vt 0.468750 0.695000
vt 0.500000 0.695000
vt 0.500000 0.555000
vt 0.156250 0.555000
vt 0.156250 0.695000
vt 0.187500 0.695000
vt 0.187500 0.555000
vt 0.531250 0.695000
vt 0.531250 0.555000
vt 0.062500 0.695000
vt 0.062500 0.555000
vt 0.906250 0.695000
vt 0.906250 0.555000
vt 0.406250 0.555000
vt 0.406250 0.695000
vt 0.437500 0.695000
vt 0.437500 0.555000
vt 0.937500 0.695000
vt 0.937500 0.555000
vt 0.593750 0.555000
vt 0.593750 0.695000
vt 0.093750 0.555000
vt 0.093750 0.695000
vt 0.125000 0.695000
vt 0.125000 0.555000
vt 0.562500 0.555000
vt 0.562500 0.695000
vt 0.375000 0.555000
vt 0.375000 0.695000
vt 0.312500 0.555000
vt 0.312500 0.695000
vt 0.343750 0.695000
vt 0.343750 0.555000
vt 0.235854 0.631097
vt 0.236675 0.636959
vt 0.238008 0.642362
vt 0.239801 0.647097
vt 0.241987 0.650983
vt 0.244481 0.653871
vt 0.247186 0.655650
vt 0.250000 0.656250
vt 0.252814 0.655649
vt 0.255519 0.653871
vt 0.258013 0.650983
vt 0.260199 0.647097
vt 0.261992 0.642362
vt 0.263325 0.636959
vt 0.264146 0.631097
vt 0.125000 0.750000
vt 0.968750 0.555000
vt 0.968750 0.695000
vt 1.000000 0.695000
vt 1.000000 0.555000
vt 0.281250 0.695000
vt 0.281250 0.555000
vt 0.735837 0.631093
vt 0.736676 0.636959
vt 0.738007 0.642362
vt 0.739802 0.647097
vt 0.741987 0.650983
vt 0.744481 0.653871
vt 0.747186 0.655650
vt 0.750000 0.656250
vt 0.752814 0.655650
vt 0.755519 0.653871
vt 0.758012 0.650983
vt 0.760199 0.647097
vt 0.761994 0.642362
vt 0.763326 0.636959
vt 0.764145 0.631096
vt 0.836431 0.631097
vt 0.837252 0.636959
vt 0.838585 0.642362
vt 0.840378 0.647097
vt 0.842564 0.650983
vt 0.845058 0.653871
vt 0.847763 0.655650
vt 0.850577 0.656250
vt 0.853391 0.655649
vt 0.856097 0.653871
vt 0.858590 0.650983
vt 0.860776 0.647097
vt 0.862570 0.642362
vt 0.863902 0.636959
vt 0.864723 0.631097
vn -0.0000 -0.0000 1.0000
vn -0.1951 0.0000 0.9808
vn -0.3827 0.0000 0.9239
vn -0.5556 0.0000 0.8315
vn -0.7071 0.0000 0.7071
vn -0.8315 0.0000 0.5556
vn -0.9239 0.0000 0.3827
vn -0.9808 0.0000 0.1951
vn -1.0000 0.0000 0.0000
vn -0.9808 0.0000 -0.1951
vn -0.9239 0.0000 -0.3827
vn -0.8315 0.0000 -0.5556
vn -0.7071 0.0000 -0.7071
vn -0.5556 0.0000 -0.8315
vn -0.3827 0.0000 -0.9239
vn -0.1951 -0.0000 -0.9808
vn 0.0000 -0.0000 -1.0000
vn 0.1951 -0.0000 -0.9808
vn 0.3827 0.0000 -0.9239
vn 0.5556 0.0000 -0.8315
vn 0.7071 0.0000 -0.7071
vn 0.8315 0.0000 -0.5556
vn 0.9239 0.0000 -0.3827
vn 0.9808 0.0000 -0.1951
vn 1.0000 0.0000 0.0000
vn 0.9808 0.0000 0.1951
vn 0.9239 0.0000 0.3827
vn 0.8315 0.0000 0.5556
vn 0.7071 -0.0000 0.7071
vn 0.5556 -0.0000 0.8315
vn 0.3827 -0.0000 0.9239
vn 0.1951 -0.0000 0.9808
vn 0.0000 1.0000 -0.0000
vn 0.0000 -1.0000 0.0000
usemtl Material
s 1
f 1/1/1 2/2/2 52/3/2 70/4/1
f 2/2/2 3/5/3 51/6/3 52/3/2
f 3/5/3 4/7/4 72/8/4 51/6/3
f 4/7/4 5/9/5 54/10/5 72/8/4
f 5/9/5 6/11/6 57/12/6 54/10/5
f 6/11/6 7/13/7 73/14/7 57/12/6
f 7/13/7 8/15/8 71/16/8 73/14/7
f 8/15/8 9/17/9 66/18/9 71/16/8
f 9/17/9 10/19/10 63/20/10 66/18/9
f 10/19/10 11/21/11 65/22/11 63/20/10
f 11/21/11 12/23/12 79/24/12 65/22/11
f 12/23/12 13/25/13 64/26/13 79/24/12
f 13/25/13 14/27/14 55/28/14 64/26/13
f 14/27/14 15/29/15 56/30/15 55/28/14
f 15/29/15 16/31/16 58/32/16 56/30/15
f 16/31/16 17/33/17 69/34/17 58/32/16
f 17/33/17 18/35/18 78/36/18 69/34/17
f 18/35/18 19/37/19 59/38/19 78/36/18
f 19/37/19 20/39/20 62/40/20 59/38/19
f 20/39/20 21/41/21 77/42/21 62/40/20
f 21/41/21 22/43/22 75/44/22 77/42/21
f 22/43/22 23/45/23 74/46/23 75/44/22
f 23/45/23 24/47/24 76/48/24 74/46/23
f 24/47/24 25/49/25 60/50/25 76/48/24
f 25/49/25 26/51/26 53/52/26 60/50/25
f 26/51/26 27/53/27 49/54/27 53/52/26
f 27/53/27 28/55/28 50/56/28 49/54/27
f 28/55/28 29/57/29 67/58/29 50/56/28
f 29/57/29 30/59/30 68/60/30 67/58/29
f 30/59/30 31/61/31 61/62/31 68/60/30
f 31/61/31 32/63/32 80/64/32 61/62/31
f 32/63/32 1/65/1 70/66/1 80/64/32
f 1/67/33 32/68/33 31/69/33 30/70/33 29/71/33 28/72/33 27/73/33 26/74/33 25/75/33 24/76/33 23/77/33 22/78/33 21/79/33 20/80/33 19/81/33 18/82/33 17/83/33 16/84/33 15/85/33 14/86/33 13/87/33 12/88/33 11/89/33 10/90/33 9/91/33 8/92/33 7/93/33 6/94/33 5/95/33 4/96/33 3/97/33 2/98/33
f 37/99/25 39/100/25 46/101/25 48/102/25
f 36/103/1 41/104/1 42/105/1 40/106/1
f 40/107/9 42/108/9 44/109/9 38/110/9
f 38/111/34 34/112/34 36/103/34 115/113/34 125/114/34 129/115/34 97/116/34 91/117/34 127/118/34 85/119/34 87/120/34 123/121/34 143/122/34 105/123/34 119/124/34 117/125/34 83/126/34 81/127/34 89/128/34 103/129/34
f 34/112/25 43/130/25 41/104/25 36/103/25
f 38/110/17 44/109/17 43/130/17 34/112/17
f 35/131/33 39/100/33 42/132/33 41/104/33
f 33/133/33 35/131/33 41/104/33 43/130/33
f 39/100/33 37/99/33 44/134/33 42/132/33
f 37/99/33 33/133/33 43/130/33 44/134/33
f 47/135/33 48/102/33 60/136/33 53/137/33 49/138/33 50/139/33 67/140/33 68/141/33 61/142/33 80/143/33 70/144/33 52/145/33 51/146/33 72/147/33 54/148/33 57/149/33 73/150/33 71/151/33 66/152/33
f 39/100/17 35/131/17 45/153/17 46/101/17
f 33/133/1 37/99/1 48/102/1 47/135/1
f 35/131/9 33/133/9 47/135/9 45/153/9
f 66/152/33 104/154/33 90/155/33 82/156/33 84/157/33 118/158/33 120/159/33 106/160/33 144/161/33 124/162/33 88/163/33 86/164/33 128/165/33 92/166/33 98/167/33 130/168/33 126/169/33 116/170/33 47/135/33
f 109/171/10 110/172/10 116/173/9 115/174/9
f 111/175/13 112/176/13 142/177/12 141/178/12
f 141/178/12 142/177/12 114/179/11 113/180/11
f 89/181/26 90/182/26 104/183/25 103/184/25
f 125/185/8 126/186/8 130/187/7 129/188/7
f 115/174/9 116/173/9 126/186/8 125/185/8
f 97/189/6 98/190/6 92/191/5 91/192/5
f 123/193/1 124/194/1 144/195/32 143/196/32
f 139/197/18 140/198/18 122/199/17 121/200/17
f 83/201/28 84/202/28 82/203/27 81/204/27
f 121/200/17 122/199/17 100/205/16 99/206/16
f 143/196/32 144/195/32 106/207/31 105/208/31
f 91/192/5 92/191/5 128/209/4 127/210/4
f 107/211/20 108/212/20 102/213/19 101/214/19
f 127/210/4 128/209/4 86/215/3 85/216/3
f 93/217/14 94/218/14 112/176/13 111/175/13
f 119/219/30 120/220/30 118/221/29 117/222/29
f 81/204/27 82/203/27 90/182/26 89/181/26
f 95/223/15 96/224/15 94/218/14 93/217/14
f 137/225/21 138/226/21 108/212/20 107/211/20
f 131/227/23 132/228/23 134/229/22 133/230/22
f 135/231/34 131/232/34 133/233/34 137/234/34 107/235/34 101/236/34 139/237/34 121/238/34 99/239/34 95/240/34 93/241/34 111/242/34 141/243/34 113/244/34 109/245/34 115/113/34 36/103/34 40/246/34 38/111/34 103/129/34
f 87/247/2 88/248/2 124/249/1 123/250/1
f 129/188/7 130/187/7 98/190/6 97/189/6
f 103/184/25 104/183/25 136/251/24 135/252/24
f 113/180/11 114/179/11 110/172/10 109/171/10
f 47/135/33 116/170/33 110/253/33 114/254/33 142/255/33 112/256/33 94/257/33 96/258/33 100/259/33 122/260/33 140/261/33 102/262/33 108/263/33 138/264/33 134/265/33 132/266/33 136/267/33 104/154/33 66/152/33 63/268/33 65/269/33 79/270/33 64/271/33 55/272/33 56/273/33 58/274/33 69/275/33 78/276/33 59/277/33 62/278/33 77/279/33 75/280/33 74/281/33 76/282/33 60/136/33 48/102/33 46/101/33 45/153/33
f 101/214/19 102/213/19 140/198/18 139/197/18
f 105/208/31 106/207/31 120/220/30 119/219/30
f 85/216/3 86/215/3 88/248/2 87/247/2
f 99/206/16 100/205/16 96/224/15 95/223/15
f 135/252/24 136/251/24 132/228/23 131/227/23
f 117/222/29 118/221/29 84/202/28 83/201/28
f 133/230/22 134/229/22 138/226/21 137/225/21
