# Blender v2.82 (sub 7) OBJ File: 'lvl1.blend'
# www.blender.org
mtllib Board1.mtl
o Cube
v -1.046003 -0.120834 -0.150000
v -1.016739 -0.120834 -0.147118
v -0.988600 -0.120834 -0.138582
v -0.962667 -0.120834 -0.124720
v -0.939937 -0.120834 -0.106066
v -0.921282 -0.120834 -0.083336
v -0.907421 -0.120834 -0.057403
v -0.898885 -0.120834 -0.029264
v -0.896003 -0.120834 -0.000000
v -0.898885 -0.120834 0.029264
v -0.907421 -0.120834 0.057402
v -0.921282 -0.120834 0.083336
v -0.939937 -0.120834 0.106066
v -0.962667 -0.120834 0.124720
v -0.988600 -0.120834 0.138582
v -1.016739 -0.120834 0.147118
v -1.046003 -0.120834 0.150000
v -1.075266 -0.120834 0.147118
v -1.103405 -0.120834 0.138582
v -1.129338 -0.120834 0.124720
v -1.152069 -0.120834 0.106066
v -1.170723 -0.120834 0.083335
v -1.184585 -0.120834 0.057402
v -1.193121 -0.120834 0.029263
v -1.196003 -0.120834 -0.000000
v -1.193121 -0.120834 -0.029264
v -1.184585 -0.120834 -0.057403
v -1.170723 -0.120834 -0.083336
v -1.152069 -0.120834 -0.106066
v -1.129338 -0.120834 -0.124721
v -1.103405 -0.120834 -0.138582
v -1.075266 -0.120834 -0.147118
v 1.235000 0.156000 -0.540000
v 1.300000 -0.156000 -0.600000
v 1.235000 0.156000 0.540000
v 1.300000 -0.156000 0.600000
v -1.235000 0.156000 -0.540000
v -1.300000 -0.156000 -0.600000
v -1.235000 0.156000 0.540000
v -1.300000 -0.156000 0.600000
v 1.300000 0.156000 0.600000
v -1.300000 0.156000 0.600000
v 1.300000 0.156000 -0.600000
v -1.300000 0.156000 -0.600000
v 1.235000 -0.044000 0.540000
v -1.235000 -0.044000 0.540000
v 1.235000 -0.044000 -0.540000
v -1.235000 -0.044000 -0.540000
v -1.184585 -0.044000 -0.057403
v -1.170723 -0.044000 -0.083336
v -0.988600 -0.044000 -0.138582
v -1.016739 -0.044000 -0.147118
v -1.193120 -0.044000 -0.029264
v -0.939937 -0.044000 -0.106066
v -0.962667 -0.044000 0.124720
v -0.988600 -0.044000 0.138582
v -0.921282 -0.044000 -0.083336
v -1.016739 -0.044000 0.147118
v -1.103405 -0.044000 0.138582
v -1.196003 -0.044000 -0.000000
v -1.103405 -0.044000 -0.138582
v -1.129338 -0.044000 0.124720
v -0.898885 -0.044000 0.029264
v -0.939937 -0.044000 0.106066
v -0.907421 -0.044000 0.057402
v -0.896003 -0.044000 -0.000000
v -1.152069 -0.044000 -0.106066
v -1.129338 -0.044000 -0.124721
v -1.046003 -0.044000 0.150000
v -1.046003 -0.044000 -0.150000
v -0.898885 -0.044000 -0.029264
v -0.962667 -0.044000 -0.124720
v -0.907421 -0.044000 -0.057403
v -1.184585 -0.044000 0.057402
v -1.170723 -0.044000 0.083335
v -1.193121 -0.044000 0.029263
v -1.152069 -0.044000 0.106066
v -1.075266 -0.044000 0.147118
v -0.921282 -0.044000 0.083336
v -1.075266 -0.044000 -0.147118
vt 0.126430 0.711162
vt 0.126430 0.718964
vt 0.110403 0.718964
vt 0.110403 0.711162
vt 0.126430 0.726589
vt 0.110403 0.726589
vt 0.126430 0.733744
vt 0.110403 0.733744
vt 0.126430 0.740153
vt 0.110403 0.740153
vt 0.094376 0.689655
vt 0.094376 0.696187
vt 0.078348 0.696187
vt 0.078348 0.689655
vt 0.094376 0.703639
vt 0.078348 0.703639
vt 0.094376 0.711725
vt 0.078348 0.711725
vt 0.094376 0.720134
vt 0.078348 0.720134
vt 0.094376 0.728543
vt 0.078348 0.728543
vt 0.094376 0.736629
vt 0.078348 0.736629
vt 0.094376 0.744081
vt 0.078348 0.744081
vt 0.094376 0.750613
vt 0.078348 0.750613
vt 0.078348 0.689655
vt 0.078348 0.695684
vt 0.062321 0.695684
vt 0.062321 0.689655
vt 0.078348 0.702563
vt 0.062321 0.702563
vt 0.078348 0.710027
vt 0.062321 0.710027
vt 0.078348 0.717789
vt 0.062321 0.717789
vt 0.078348 0.725552
vt 0.062321 0.725552
vt 0.078348 0.733015
vt 0.062321 0.733015
vt 0.078348 0.739894
vt 0.062321 0.739894
vt 0.078348 0.745924
vt 0.062321 0.745924
vt 0.078348 0.750872
vt 0.062321 0.750872
vt 0.094376 0.750176
vt 0.094376 0.744002
vt 0.110403 0.744002
vt 0.110403 0.750176
vt 0.094376 0.736835
vt 0.110403 0.736835
vt 0.094376 0.728949
vt 0.110403 0.728949
vt 0.094376 0.720649
vt 0.110403 0.720649
vt 0.094376 0.712252
vt 0.110403 0.712252
vt 0.094376 0.704081
vt 0.110403 0.704081
vt 0.094376 0.696451
vt 0.110403 0.696451
vt 0.094376 0.689655
vt 0.110403 0.689655
vt 0.126430 0.689655
vt 0.126430 0.696220
vt 0.110403 0.696220
vt 0.126430 0.703482
vt 0.110403 0.703482
vt 0.034230 0.689655
vt 0.040250 0.691183
vt 0.045921 0.694301
vt 0.051024 0.698891
vt 0.055365 0.704775
vt 0.058775 0.711728
vt 0.061124 0.719482
vt 0.062321 0.727740
vt 0.062321 0.736184
vt 0.061124 0.744489
vt 0.058775 0.752337
vt 0.055365 0.759425
vt 0.051024 0.765482
vt 0.045921 0.770275
vt 0.040250 0.773619
vt 0.034230 0.775386
vt 0.028092 0.775508
vt 0.022071 0.773980
vt 0.016400 0.770862
vt 0.011297 0.766272
vt 0.006957 0.760388
vt 0.003546 0.753435
vt 0.001197 0.745680
vt 0.000000 0.737423
vt 0.000000 0.728979
vt 0.001197 0.720674
vt 0.003546 0.712826
vt 0.006957 0.705737
vt 0.011297 0.699681
vt 0.016401 0.694888
vt 0.022071 0.691544
vt 0.028092 0.689777
vt 0.755945 0.655172
vt 0.755945 0.953857
vt 0.714226 0.953857
vt 0.714226 0.655172
vt 0.916562 0.687765
vt 0.851481 0.687765
vt 0.851481 0.000000
vt 0.916562 0.000000
vt 0.607426 1.000000
vt 0.542345 1.000000
vt 0.542345 0.655172
vt 0.607426 0.655172
vt 0.271172 0.689655
vt 0.271172 0.000000
vt 0.542344 0.000000
vt 0.542345 0.689655
vt 0.672507 0.987044
vt 0.607426 0.987044
vt 0.607426 0.655172
vt 0.672507 0.655172
vt 0.851481 0.689655
vt 0.786400 0.689655
vt 0.786400 0.000000
vt 0.851481 0.000000
vt 0.013559 0.017241
vt 0.013559 0.672414
vt 0.000000 0.689655
vt 0.000000 0.000000
vt 0.257614 0.017241
vt 0.271172 0.000000
vt 0.257614 0.672414
vt 0.271172 0.689655
vt 0.786400 0.000000
vt 0.786400 0.655172
vt 0.664372 0.644828
vt 0.670985 0.644064
vt 0.677344 0.641800
vt 0.683204 0.638123
vt 0.688341 0.633175
vt 0.692556 0.627145
vt 0.695688 0.620267
vt 0.697617 0.612803
vt 0.698269 0.605040
vt 0.697617 0.597278
vt 0.695688 0.589814
vt 0.692556 0.582936
vt 0.688341 0.576906
vt 0.683204 0.571958
vt 0.677344 0.568281
vt 0.670985 0.566017
vt 0.664372 0.565253
vt 0.916562 0.655172
vt 0.916562 0.000000
vt 0.958281 0.000000
vt 0.958281 0.655172
vt 0.958281 0.653377
vt 0.958281 0.000000
vt 1.000000 0.000000
vt 1.000000 0.653377
vt 0.672507 0.965517
vt 0.672507 0.655172
vt 0.714226 0.655172
vt 0.714226 0.965517
vt 0.657759 0.566017
vt 0.651401 0.568281
vt 0.645540 0.571958
vt 0.640404 0.576906
vt 0.636188 0.582936
vt 0.633056 0.589814
vt 0.631127 0.597278
vt 0.630476 0.605040
vt 0.631127 0.612803
vt 0.633056 0.620267
vt 0.636188 0.627145
vt 0.640404 0.633175
vt 0.645540 0.638123
vt 0.651401 0.641800
vt 0.657759 0.644064
vt 0.542345 0.655172
vt 0.542345 0.000000
vn -0.0980 0.0000 0.9952
vn -0.2903 0.0000 0.9569
vn -0.4714 0.0000 0.8819
vn -0.6344 0.0000 0.7730
vn -0.7730 0.0000 0.6344
vn -0.8819 0.0000 0.4714
vn -0.9569 0.0000 0.2903
vn -0.9952 0.0000 0.0980
vn -0.9952 0.0000 -0.0980
vn -0.9569 0.0000 -0.2903
vn -0.8819 0.0000 -0.4714
vn -0.7730 0.0000 -0.6344
vn -0.6344 0.0000 -0.7730
vn -0.4714 0.0000 -0.8819
vn -0.2903 0.0000 -0.9569
vn -0.0980 -0.0000 -0.9952
vn 0.0980 -0.0000 -0.9952
vn 0.2903 0.0000 -0.9569
vn 0.4714 0.0000 -0.8819
vn 0.6344 0.0000 -0.7730
vn 0.7730 0.0000 -0.6344
vn 0.8819 0.0000 -0.4714
vn 0.9569 0.0000 -0.2903
vn 0.9952 0.0000 -0.0980
vn 0.9952 0.0000 0.0980
vn 0.9569 0.0000 0.2903
vn 0.8819 0.0000 0.4714
vn 0.7730 0.0000 0.6344
vn 0.6344 -0.0000 0.7730
vn 0.4714 0.0000 0.8819
vn 0.2903 -0.0000 0.9569
vn 0.0980 -0.0000 0.9952
vn 0.0000 1.0000 -0.0000
vn 1.0000 0.0000 0.0000
vn 0.0000 0.0000 1.0000
vn -1.0000 0.0000 0.0000
vn 0.0000 -1.0000 0.0000
vn 0.0000 0.0000 -1.0000
usemtl Material
s off
f 1/1/1 2/2/1 52/3/1 70/4/1
f 2/2/2 3/5/2 51/6/2 52/3/2
f 3/5/3 4/7/3 72/8/3 51/6/3
f 4/7/4 5/9/4 54/10/4 72/8/4
f 5/11/5 6/12/5 57/13/5 54/14/5
f 6/12/6 7/15/6 73/16/6 57/13/6
f 7/15/7 8/17/7 71/18/7 73/16/7
f 8/17/8 9/19/8 66/20/8 71/18/8
f 9/19/9 10/21/9 63/22/9 66/20/9
f 10/21/10 11/23/10 65/24/10 63/22/10
f 11/23/11 12/25/11 79/26/11 65/24/11
f 12/25/12 13/27/12 64/28/12 79/26/12
f 13/29/13 14/30/13 55/31/13 64/32/13
f 14/30/14 15/33/14 56/34/14 55/31/14
f 15/33/15 16/35/15 58/36/15 56/34/15
f 16/35/16 17/37/16 69/38/16 58/36/16
f 17/37/17 18/39/17 78/40/17 69/38/17
f 18/39/18 19/41/18 59/42/18 78/40/18
f 19/41/19 20/43/19 62/44/19 59/42/19
f 20/43/20 21/45/20 77/46/20 62/44/20
f 21/45/21 22/47/21 75/48/21 77/46/21
f 22/49/22 23/50/22 74/51/22 75/52/22
f 23/50/23 24/53/23 76/54/23 74/51/23
f 24/53/24 25/55/24 60/56/24 76/54/24
f 25/55/25 26/57/25 53/58/25 60/56/25
f 26/57/26 27/59/26 49/60/26 53/58/26
f 27/59/27 28/61/27 50/62/27 49/60/27
f 28/61/28 29/63/28 67/64/28 50/62/28
f 29/63/29 30/65/29 68/66/29 67/64/29
f 30/67/30 31/68/30 61/69/30 68/66/30
f 31/68/31 32/70/31 80/71/31 61/69/31
f 32/70/32 1/1/32 70/4/32 80/71/32
f 1/72/33 32/73/33 31/74/33 30/75/33 29/76/33 28/77/33 27/78/33 26/79/33 25/80/33 24/81/33 23/82/33 22/83/33 21/84/33 20/85/33 19/86/33 18/87/33 17/88/33 16/89/33 15/90/33 14/91/33 13/92/33 12/93/33 11/94/33 10/95/33 9/96/33 8/97/33 7/98/33 6/99/33 5/100/33 4/101/33 3/102/33 2/103/33
f 37/104/34 39/105/34 46/106/34 48/107/34
f 36/108/35 41/109/35 42/110/35 40/111/35
f 40/112/36 42/113/36 44/114/36 38/115/36
f 38/116/37 34/117/37 36/118/37 40/119/37
f 34/120/34 43/121/34 41/122/34 36/123/34
f 38/124/38 44/125/38 43/126/38 34/127/38
f 35/128/33 39/129/33 42/130/33 41/131/33
f 33/132/33 35/128/33 41/131/33 43/133/33
f 39/129/33 37/134/33 44/135/33 42/130/33
f 37/134/33 33/132/33 43/133/33 44/135/33
f 47/136/33 48/137/33 60/138/33 53/139/33 49/140/33 50/141/33 67/142/33 68/143/33 61/144/33 80/145/33 70/146/33 52/147/33 51/148/33 72/149/33 54/150/33 57/151/33 73/152/33 71/153/33 66/154/33
f 39/155/38 35/156/38 45/157/38 46/158/38
f 33/159/35 37/160/35 48/161/35 47/162/35
f 35/163/36 33/164/36 47/165/36 45/166/36
f 66/154/33 63/167/33 65/168/33 79/169/33 64/170/33 55/171/33 56/172/33 58/173/33 69/174/33 78/175/33 59/176/33 62/177/33 77/178/33 75/179/33 74/180/33 76/181/33 60/138/33 48/137/33 46/182/33 45/183/33 47/136/33
