# Blender v2.82 (sub 7) OBJ File: 'Board4Walls.blend'
# www.blender.org
mtllib Board4Walls.mtl
o Cube_Cube.006
v -1.112546 -0.170108 0.988963
v -1.081331 -0.170108 0.992037
v -1.051316 -0.170108 1.001142
v -1.023654 -0.170108 1.015928
v -0.999409 -0.170108 1.035826
v -0.979511 -0.170108 1.060072
v -0.964725 -0.170108 1.087734
v -0.955620 -0.170108 1.117748
v -0.952546 -0.170108 1.148963
v -0.955620 -0.170108 1.180177
v -0.964725 -0.170108 1.210192
v -0.979511 -0.170108 1.237854
v -0.999409 -0.170108 1.262100
v -1.023654 -0.170108 1.281998
v -1.051316 -0.170108 1.296784
v -1.081331 -0.170108 1.305889
v -1.112546 -0.170108 1.308963
v -1.143760 -0.170108 1.305889
v -1.173775 -0.170108 1.296784
v -1.201437 -0.170108 1.281998
v -1.225683 -0.170108 1.262100
v -1.245581 -0.170108 1.237854
v -1.260366 -0.170108 1.210192
v -1.269471 -0.170108 1.180177
v -1.272546 -0.170108 1.148963
v -1.269471 -0.170108 1.117748
v -1.260366 -0.170108 1.087733
v -1.245581 -0.170108 1.060071
v -1.225683 -0.170108 1.035826
v -1.201437 -0.170108 1.015928
v -1.173775 -0.170108 1.001142
v -1.143760 -0.170108 0.992037
v -1.500000 -0.225000 1.500000
v -1.388999 0.225000 1.388999
v -1.500000 -0.225000 -1.500000
v -1.388999 0.225000 -1.388999
v 1.500000 -0.225000 1.500000
v 1.388999 0.225000 1.388999
v 1.500000 -0.225000 -1.500000
v 1.388999 0.225000 -1.388999
v -1.500000 0.225000 1.500000
v -1.500000 0.225000 -1.500000
v 1.500000 0.225000 -1.500000
v 1.500000 0.225000 1.500000
v -1.388999 -0.065000 1.388999
v -1.388999 -0.065000 -1.388999
v 1.388999 -0.065000 -1.388999
v 1.388999 -0.065000 1.388999
v 0.430689 1.546511 0.206262
v -1.003576 -0.065000 0.301217
v -1.003576 0.175000 0.301217
v -1.003576 -0.065000 0.211217
v -1.003576 0.175000 0.211217
v 1.396424 -0.065000 0.301217
v 1.396424 0.175000 0.301217
v 1.396424 -0.065000 0.211217
v 1.396424 0.175000 0.211217
v -1.396717 -0.065000 0.905528
v -1.396717 0.175000 0.905528
v -1.396717 -0.065000 0.815528
v -1.396717 0.175000 0.815528
v 1.003283 -0.065000 0.905528
v 1.003283 0.175000 0.905528
v 1.003283 -0.065000 0.815528
v 1.003283 0.175000 0.815528
v -1.003576 -0.065000 -0.886779
v -1.003576 0.175000 -0.886779
v -1.003576 -0.065000 -0.976779
v -1.003576 0.175000 -0.976779
v 1.396424 -0.065000 -0.886779
v 1.396424 0.175000 -0.886779
v 1.396424 -0.065000 -0.976779
v 1.396424 0.175000 -0.976779
v -1.399513 -0.065000 -0.305311
v -1.399513 0.175000 -0.305311
v -1.399513 -0.065000 -0.395311
v -1.399513 0.175000 -0.395311
v 1.000487 -0.065000 -0.305311
v 1.000487 0.175000 -0.305311
v 1.000487 -0.065000 -0.395311
v 1.000487 0.175000 -0.395311
v -1.260366 -0.065000 1.087733
v -1.245581 -0.065000 1.060071
v -1.051316 -0.065000 1.001142
v -1.081331 -0.065000 0.992037
v -1.269471 -0.065000 1.117748
v -0.999409 -0.065000 1.035826
v -1.023654 -0.065000 1.281998
v -1.051316 -0.065000 1.296784
v -0.979511 -0.065000 1.060072
v -1.081331 -0.065000 1.305889
v -1.173775 -0.065000 1.296784
v -1.272546 -0.065000 1.148963
v -1.173775 -0.065000 1.001142
v -1.201437 -0.065000 1.281998
v -0.955620 -0.065000 1.180177
v -0.999409 -0.065000 1.262100
v -0.964725 -0.065000 1.210192
v -0.952546 -0.065000 1.148963
v -1.225683 -0.065000 1.035826
v -1.201437 -0.065000 1.015928
v -1.112546 -0.065000 1.308963
v -1.112546 -0.065000 0.988963
v -0.955620 -0.065000 1.117748
v -1.023654 -0.065000 1.015928
v -0.964725 -0.065000 1.087734
v -1.260366 -0.065000 1.210192
v -1.245581 -0.065000 1.237854
v -1.269471 -0.065000 1.180177
v -1.225683 -0.065000 1.262100
v -1.143760 -0.065000 1.305889
v -0.979511 -0.065000 1.237854
v -1.143760 -0.065000 0.992037
vt 0.470229 0.831466
vt 0.467507 0.831466
vt 0.467507 0.770000
vt 0.470229 0.770000
vt 0.464889 0.831466
vt 0.464889 0.770000
vt 0.462477 0.831466
vt 0.462477 0.770000
vt 0.460362 0.831466
vt 0.460362 0.770000
vt 0.440629 0.770000
vt 0.442744 0.770000
vt 0.442744 0.831466
vt 0.440629 0.831466
vt 0.445156 0.770000
vt 0.445156 0.831466
vt 0.447774 0.770000
vt 0.447774 0.831466
vt 0.450496 0.770000
vt 0.450496 0.831466
vt 0.453218 0.770000
vt 0.453218 0.831466
vt 0.455836 0.770000
vt 0.455836 0.831466
vt 0.458248 0.770000
vt 0.458248 0.831466
vt 0.460362 0.770000
vt 0.460362 0.831466
vt 0.440629 0.831466
vt 0.438515 0.831466
vt 0.438515 0.770000
vt 0.440629 0.770000
vt 0.436102 0.831466
vt 0.436102 0.770000
vt 0.433485 0.831466
vt 0.433485 0.770000
vt 0.430763 0.831466
vt 0.430763 0.770000
vt 0.428040 0.831466
vt 0.428040 0.770000
vt 0.425423 0.831466
vt 0.425423 0.770000
vt 0.423010 0.831466
vt 0.423010 0.770000
vt 0.420896 0.831466
vt 0.420896 0.770000
vt 0.401163 0.770000
vt 0.403277 0.770000
vt 0.403277 0.831466
vt 0.401163 0.831466
vt 0.405690 0.770000
vt 0.405690 0.831466
vt 0.408307 0.770000
vt 0.408307 0.831466
vt 0.411029 0.770000
vt 0.411029 0.831466
vt 0.413752 0.770000
vt 0.413752 0.831466
vt 0.416369 0.770000
vt 0.416369 0.831466
vt 0.418781 0.770000
vt 0.418782 0.831466
vt 0.420896 0.770000
vt 0.420896 0.831466
vt 0.480096 0.831466
vt 0.477981 0.831466
vt 0.477981 0.770000
vt 0.480096 0.770000
vt 0.475569 0.831466
vt 0.475569 0.770000
vt 0.472951 0.831466
vt 0.472951 0.770000
vt 0.179313 0.807515
vt 0.178779 0.804817
vt 0.178779 0.802066
vt 0.179313 0.799367
vt 0.180359 0.796825
vt 0.181879 0.794537
vt 0.183813 0.792592
vt 0.186088 0.791063
vt 0.188615 0.790011
vt 0.191298 0.789474
vt 0.194033 0.789474
vt 0.196716 0.790011
vt 0.199243 0.791063
vt 0.201517 0.792592
vt 0.203452 0.794537
vt 0.204971 0.796825
vt 0.206018 0.799367
vt 0.206552 0.802066
vt 0.206552 0.804817
vt 0.206018 0.807515
vt 0.204971 0.810057
vt 0.203452 0.812345
vt 0.201517 0.814291
vt 0.199243 0.815819
vt 0.196716 0.816872
vt 0.194033 0.817409
vt 0.191298 0.817409
vt 0.188615 0.816872
vt 0.186088 0.815819
vt 0.183813 0.814291
vt 0.181879 0.812345
vt 0.180359 0.810057
vt 0.523256 0.526316
vt 0.261628 0.526316
vt 0.261628 0.263158
vt 0.523256 0.263158
vt 0.000000 0.526316
vt 0.000000 0.263158
vt 0.261628 0.263158
vt 0.261628 0.526316
vt 0.261628 0.263158
vt 0.000000 0.263158
vt 0.000000 0.000000
vt 0.261628 0.000000
vt 0.523256 0.263158
vt 0.261628 0.263158
vt 0.261628 0.000000
vt 0.523256 0.000000
vt 0.523256 0.000000
vt 0.784884 0.000000
vt 0.784884 0.263158
vt 0.523256 0.263158
vt 0.691860 0.750526
vt 0.691860 0.506842
vt 0.860465 0.506842
vt 0.860465 0.750526
vt 0.251947 0.779737
vt 0.251947 0.536053
vt 0.261628 0.526316
vt 0.261628 0.789474
vt 0.009680 0.536053
vt 0.000000 0.526316
vt 0.009680 0.779737
vt 0.000000 0.789474
vt 0.261628 0.526316
vt 0.503895 0.526316
vt 0.503895 0.770000
vt 0.493739 0.748944
vt 0.493471 0.746206
vt 0.492677 0.743573
vt 0.491388 0.741147
vt 0.489652 0.739020
vt 0.487538 0.737274
vt 0.485126 0.735977
vt 0.482508 0.735179
vt 0.479786 0.734909
vt 0.477064 0.735179
vt 0.474446 0.735977
vt 0.472034 0.737274
vt 0.469919 0.739020
vt 0.468184 0.741147
vt 0.466894 0.743573
vt 0.466100 0.746206
vt 0.465832 0.748944
vt 0.261628 0.770000
vt 0.691861 0.506842
vt 0.691860 0.263158
vt 0.860465 0.263158
vt 0.860465 0.506842
vt 0.691860 0.506842
vt 0.523256 0.506842
vt 0.523256 0.263158
vt 0.523256 0.750526
vt 0.523256 0.506842
vt 0.691860 0.506842
vt 0.691860 0.750526
vt 0.170930 0.789474
vt 0.170930 0.929825
vt 0.163081 0.929825
vt 0.163081 0.789474
vt 1.000000 0.473684
vt 0.860465 0.473684
vt 0.860465 0.263158
vt 1.000000 0.263158
vt 0.155233 0.789474
vt 0.155233 0.929825
vt 0.147384 0.929825
vt 0.147384 0.789474
vt 0.000000 0.789474
vt 0.139535 0.789474
vt 0.139535 1.000000
vt 0.000000 1.000000
vt 0.940116 0.210526
vt 0.940116 0.000000
vt 0.947965 0.000000
vt 0.947965 0.210526
vt 0.940116 0.000000
vt 0.940116 0.210526
vt 0.932267 0.210526
vt 0.932267 0.000000
vt 0.496046 0.910351
vt 0.496046 0.770000
vt 0.503895 0.770000
vt 0.503895 0.910351
vt 0.860465 0.473684
vt 1.000000 0.473684
vt 1.000000 0.684210
vt 0.860465 0.684210
vt 0.487944 0.770000
vt 0.487944 0.910351
vt 0.480096 0.910351
vt 0.480096 0.770000
vt 0.941860 0.961052
vt 0.802326 0.961052
vt 0.802326 0.750526
vt 0.941860 0.750526
vt 0.503895 0.736842
vt 0.503895 0.526316
vt 0.511744 0.526316
vt 0.511744 0.736842
vt 0.515407 0.736842
vt 0.515407 0.947368
vt 0.507558 0.947368
vt 0.507558 0.736842
vt 0.488197 0.910351
vt 0.488197 0.770000
vt 0.496046 0.770000
vt 0.496046 0.910351
vt 0.261628 0.770000
vt 0.401163 0.770000
vt 0.401163 0.980526
vt 0.261628 0.980526
vt 0.170930 0.929825
vt 0.170930 0.789474
vt 0.178779 0.789474
vt 0.178779 0.929825
vt 0.802326 0.961052
vt 0.662791 0.961052
vt 0.662791 0.750526
vt 0.802326 0.750526
vt 0.515407 0.736842
vt 0.515407 0.526316
vt 0.523256 0.526316
vt 0.523256 0.736842
vt 0.932267 0.000000
vt 0.932267 0.210526
vt 0.924419 0.210526
vt 0.924419 0.000000
vt 0.163081 0.789474
vt 0.163081 0.929825
vt 0.155233 0.929825
vt 0.155233 0.789474
vt 0.784884 0.000000
vt 0.924418 0.000000
vt 0.924419 0.210526
vt 0.784884 0.210526
vt 0.147384 0.789474
vt 0.147384 0.929825
vt 0.139535 0.929825
vt 0.139535 0.789474
vt 0.523256 0.750526
vt 0.662791 0.750526
vt 0.662791 0.961052
vt 0.523256 0.961052
vt 0.949709 0.750526
vt 0.949709 0.961052
vt 0.941860 0.961052
vt 0.941860 0.750526
vt 0.523256 0.736842
vt 0.523256 0.947368
vt 0.515407 0.947368
vt 0.515407 0.736842
vt 0.466100 0.751682
vt 0.466894 0.754315
vt 0.468184 0.756741
vt 0.469919 0.758868
vt 0.472034 0.760614
vt 0.474446 0.761911
vt 0.477064 0.762709
vt 0.479786 0.762979
vt 0.482508 0.762709
vt 0.485126 0.761911
vt 0.487538 0.760614
vt 0.489652 0.758868
vt 0.491388 0.756741
vt 0.492677 0.754315
vt 0.493471 0.751682
vn -0.0980 -0.0000 0.9952
vn -0.2903 0.0000 0.9569
vn -0.4714 0.0000 0.8819
vn -0.6344 -0.0000 0.7730
vn -0.7730 -0.0000 0.6344
vn -0.8819 0.0000 0.4714
vn -0.9569 0.0000 0.2903
vn -0.9952 0.0000 0.0980
vn -0.9952 0.0000 -0.0980
vn -0.9569 0.0000 -0.2903
vn -0.8819 0.0000 -0.4714
vn -0.7730 0.0000 -0.6344
vn -0.6344 0.0000 -0.7730
vn -0.4714 0.0000 -0.8819
vn -0.2903 0.0000 -0.9569
vn -0.0980 0.0000 -0.9952
vn 0.0980 0.0000 -0.9952
vn 0.2903 0.0000 -0.9569
vn 0.4714 0.0000 -0.8819
vn 0.6344 0.0000 -0.7730
vn 0.7730 0.0000 -0.6344
vn 0.8819 0.0000 -0.4714
vn 0.9569 0.0000 -0.2903
vn 0.9952 0.0000 -0.0980
vn 0.9952 0.0000 0.0980
vn 0.9569 0.0000 0.2903
vn 0.8819 0.0000 0.4714
vn 0.7730 0.0000 0.6344
vn 0.6344 0.0000 0.7730
vn 0.4714 0.0000 0.8819
vn 0.2903 0.0000 0.9569
vn 0.0980 -0.0000 0.9952
vn 0.0000 1.0000 -0.0000
vn -1.0000 0.0000 0.0000
vn 0.0000 0.0000 -1.0000
vn 1.0000 0.0000 0.0000
vn 0.0000 0.0000 1.0000
vn 0.0000 -1.0000 0.0000
usemtl None
s off
f 1/1/1 2/2/1 85/3/1 103/4/1
f 2/2/2 3/5/2 84/6/2 85/3/2
f 3/5/3 4/7/3 105/8/3 84/6/3
f 4/7/4 5/9/4 87/10/4 105/8/4
f 5/11/5 6/12/5 90/13/5 87/14/5
f 6/12/6 7/15/6 106/16/6 90/13/6
f 7/15/7 8/17/7 104/18/7 106/16/7
f 8/17/8 9/19/8 99/20/8 104/18/8
f 9/19/9 10/21/9 96/22/9 99/20/9
f 10/21/10 11/23/10 98/24/10 96/22/10
f 11/23/11 12/25/11 112/26/11 98/24/11
f 12/25/12 13/27/12 97/28/12 112/26/12
f 13/29/13 14/30/13 88/31/13 97/32/13
f 14/30/14 15/33/14 89/34/14 88/31/14
f 15/33/15 16/35/15 91/36/15 89/34/15
f 16/35/16 17/37/16 102/38/16 91/36/16
f 17/37/17 18/39/17 111/40/17 102/38/17
f 18/39/18 19/41/18 92/42/18 111/40/18
f 19/41/19 20/43/19 95/44/19 92/42/19
f 20/43/20 21/45/20 110/46/20 95/44/20
f 21/47/21 22/48/21 108/49/21 110/50/21
f 22/48/22 23/51/22 107/52/22 108/49/22
f 23/51/23 24/53/23 109/54/23 107/52/23
f 24/53/24 25/55/24 93/56/24 109/54/24
f 25/55/25 26/57/25 86/58/25 93/56/25
f 26/57/26 27/59/26 82/60/26 86/58/26
f 27/59/27 28/61/27 83/62/27 82/60/27
f 28/61/28 29/63/28 100/64/28 83/62/28
f 29/65/29 30/66/29 101/67/29 100/68/29
f 30/66/30 31/69/30 94/70/30 101/67/30
f 31/69/31 32/71/31 113/72/31 94/70/31
f 32/71/32 1/1/32 103/4/32 113/72/32
f 1/73/33 32/74/33 31/75/33 30/76/33 29/77/33 28/78/33 27/79/33 26/80/33 25/81/33 24/82/33 23/83/33 22/84/33 21/85/33 20/86/33 19/87/33 18/88/33 17/89/33 16/90/33 15/91/33 14/92/33 13/93/33 12/94/33 11/95/33 10/96/33 9/97/33 8/98/33 7/99/33 6/100/33 5/101/33 4/102/33 3/103/33 2/104/33
f 33/105/34 41/106/34 42/107/34 35/108/34
f 35/109/35 42/110/35 43/111/35 39/112/35
f 39/113/36 43/114/36 44/115/36 37/116/36
f 37/117/37 44/118/37 41/119/37 33/120/37
f 35/121/38 39/122/38 37/123/38 33/124/38
f 38/125/34 40/126/34 47/127/34 48/128/34
f 34/129/33 36/130/33 42/131/33 41/132/33
f 36/130/33 40/133/33 43/134/33 42/131/33
f 40/133/33 38/135/33 44/136/33 43/134/33
f 38/135/33 34/129/33 41/132/33 44/136/33
f 47/137/33 46/138/33 45/139/33 93/140/33 86/141/33 82/142/33 83/143/33 100/144/33 101/145/33 94/146/33 113/147/33 103/148/33 85/149/33 84/150/33 105/151/33 87/152/33 90/153/33 106/154/33 104/155/33 99/156/33 48/157/33
f 36/158/36 34/159/36 45/160/36 46/161/36
f 34/159/35 38/162/35 48/163/35 45/164/35
f 40/165/37 36/166/37 46/167/37 47/168/37
f 50/169/34 51/170/34 53/171/34 52/172/34
f 52/173/35 53/174/35 57/175/35 56/176/35
f 56/177/36 57/178/36 55/179/36 54/180/36
f 54/181/37 55/182/37 51/183/37 50/184/37
f 52/185/38 56/186/38 54/187/38 50/188/38
f 57/189/33 53/190/33 51/191/33 55/192/33
f 58/193/34 59/194/34 61/195/34 60/196/34
f 60/197/35 61/198/35 65/199/35 64/200/35
f 64/201/36 65/202/36 63/203/36 62/204/36
f 62/205/37 63/206/37 59/207/37 58/208/37
f 60/209/38 64/210/38 62/211/38 58/212/38
f 65/213/33 61/214/33 59/215/33 63/216/33
f 66/217/34 67/218/34 69/219/34 68/220/34
f 68/221/35 69/222/35 73/223/35 72/224/35
f 72/225/36 73/226/36 71/227/36 70/228/36
f 70/229/37 71/230/37 67/231/37 66/232/37
f 68/233/38 72/234/38 70/235/38 66/236/38
f 73/237/33 69/238/33 67/239/33 71/240/33
f 74/241/34 75/242/34 77/243/34 76/244/34
f 76/245/35 77/246/35 81/247/35 80/248/35
f 80/249/36 81/250/36 79/251/36 78/252/36
f 78/253/37 79/254/37 75/255/37 74/256/37
f 76/257/38 80/258/38 78/259/38 74/260/38
f 81/261/33 77/262/33 75/263/33 79/264/33
f 48/157/33 99/156/33 96/265/33 98/266/33 112/267/33 97/268/33 88/269/33 89/270/33 91/271/33 102/272/33 111/273/33 92/274/33 95/275/33 110/276/33 108/277/33 107/278/33 109/279/33 93/140/33 45/139/33
