# Blender v2.82 (sub 7) OBJ File: 'lvl2.blend'
# www.blender.org
mtllib Board2.mtl
o Cube
v -1.046003 -0.083049 -0.150000
v -1.016739 -0.083049 -0.147118
v -0.988600 -0.083049 -0.138582
v -0.962667 -0.083049 -0.124720
v -0.939937 -0.083049 -0.106066
v -0.921282 -0.083049 -0.083336
v -0.907421 -0.083049 -0.057403
v -0.898885 -0.083049 -0.029264
v -0.896003 -0.083049 -0.000000
v -0.898885 -0.083049 0.029264
v -0.907421 -0.083049 0.057402
v -0.921282 -0.083049 0.083336
v -0.939937 -0.083049 0.106066
v -0.962667 -0.083049 0.124720
v -0.988600 -0.083049 0.138582
v -1.016739 -0.083049 0.147118
v -1.046003 -0.083049 0.150000
v -1.075266 -0.083049 0.147118
v -1.103405 -0.083049 0.138582
v -1.129338 -0.083049 0.124720
v -1.152069 -0.083049 0.106066
v -1.170723 -0.083049 0.083335
v -1.184585 -0.083049 0.057402
v -1.193121 -0.083049 0.029263
v -1.196003 -0.083049 -0.000000
v -1.193121 -0.083049 -0.029264
v -1.184585 -0.083049 -0.057403
v -1.170723 -0.083049 -0.083336
v -1.152069 -0.083049 -0.106066
v -1.129338 -0.083049 -0.124721
v -1.103405 -0.083049 -0.138582
v -1.075266 -0.083049 -0.147118
v 1.235000 0.193786 -0.540000
v 1.300000 -0.118214 -0.600000
v 1.235000 0.193786 0.540000
v 1.300000 -0.118214 0.600000
v -1.235000 0.193786 -0.540000
v -1.300000 -0.118214 -0.600000
v -1.235000 0.193786 0.540000
v -1.300000 -0.118214 0.600000
v 1.300000 0.193786 0.600000
v -1.300000 0.193786 0.600000
v 1.300000 0.193786 -0.600000
v -1.300000 0.193786 -0.600000
v 1.235000 -0.006214 0.540000
v -1.235000 -0.006214 0.540000
v 1.235000 -0.006214 -0.540000
v -1.235000 -0.006214 -0.540000
v -1.184585 -0.006214 -0.057403
v -1.170723 -0.006214 -0.083336
v -0.988600 -0.006214 -0.138582
v -1.016739 -0.006214 -0.147118
v -1.193120 -0.006214 -0.029264
v -0.939937 -0.006214 -0.106066
v -0.962667 -0.006214 0.124720
v -0.988600 -0.006214 0.138582
v -0.921282 -0.006214 -0.083336
v -1.016739 -0.006214 0.147118
v -1.103405 -0.006214 0.138582
v -1.196003 -0.006214 -0.000000
v -1.103405 -0.006214 -0.138582
v -1.129338 -0.006214 0.124720
v -0.898885 -0.006214 0.029264
v -0.939937 -0.006214 0.106066
v -0.907421 -0.006214 0.057402
v -0.896003 -0.006214 -0.000000
v -1.152069 -0.006214 -0.106066
v -1.129338 -0.006214 -0.124721
v -1.046003 -0.006214 0.150000
v -1.046003 -0.006214 -0.150000
v -0.898885 -0.006214 -0.029264
v -0.962667 -0.006214 -0.124720
v -0.907421 -0.006214 -0.057403
v -1.184585 -0.006214 0.057402
v -1.170723 -0.006214 0.083335
v -1.193121 -0.006214 0.029263
v -1.152069 -0.006214 0.106066
v -1.075266 -0.006214 0.147118
v -0.921282 -0.006214 0.083336
v -1.075266 -0.006214 -0.147118
v -0.138582 -0.118214 -0.057403
v -0.138582 -0.006214 -0.057403
v -0.124720 -0.118214 -0.083336
v -0.124720 -0.006214 -0.083336
v 0.057403 -0.118214 -0.138582
v 0.057403 -0.006214 -0.138582
v 0.029264 -0.118214 -0.147118
v 0.029264 -0.006214 -0.147118
v -0.147118 -0.118214 -0.029264
v -0.147118 -0.006214 -0.029264
v 0.106066 -0.118214 -0.106066
v 0.106066 -0.006214 -0.106066
v 0.083336 -0.118214 0.124720
v 0.083336 -0.006214 0.124720
v 0.057402 -0.118214 0.138582
v 0.057402 -0.006214 0.138582
v 0.124720 -0.118214 -0.083336
v 0.124720 -0.006214 -0.083336
v 0.029264 -0.118214 0.147118
v 0.029264 -0.006214 0.147118
v -0.057403 -0.118214 0.138582
v -0.057403 -0.006214 0.138582
v -0.150000 -0.118214 -0.000000
v -0.150000 -0.006214 -0.000000
v -0.057402 -0.118214 -0.138582
v -0.057402 -0.006214 -0.138582
v -0.083336 -0.118214 0.124720
v -0.083336 -0.006214 0.124720
v 0.147118 -0.118214 0.029264
v 0.147118 -0.006214 0.029264
v 0.106066 -0.118214 0.106066
v 0.106066 -0.006214 0.106066
v 0.138582 -0.118214 0.057402
v 0.138582 -0.006214 0.057402
v 0.150000 -0.118214 -0.000000
v 0.150000 -0.006214 -0.000000
v -0.106066 -0.118214 -0.106066
v -0.106066 -0.006214 -0.106066
v -0.083335 -0.118214 -0.124721
v -0.083335 -0.006214 -0.124721
v -0.000000 -0.118214 0.150000
v -0.000000 -0.006214 0.150000
v 0.000000 -0.118214 -0.150000
v 0.000000 -0.006214 -0.150000
v 0.147118 -0.118214 -0.029264
v 0.147118 -0.006214 -0.029264
v 0.083336 -0.118214 -0.124720
v 0.083336 -0.006214 -0.124720
v 0.138582 -0.118214 -0.057403
v 0.138582 -0.006214 -0.057403
v -0.138582 -0.118214 0.057402
v -0.138582 -0.006214 0.057402
v -0.124721 -0.118214 0.083335
v -0.124720 -0.006214 0.083335
v -0.147118 -0.118214 0.029263
v -0.147118 -0.006214 0.029263
v -0.106066 -0.118214 0.106066
v -0.106066 -0.006214 0.106066
v -0.029264 -0.118214 0.147118
v -0.029264 -0.006214 0.147118
v 0.124720 -0.118214 0.083336
v 0.124720 -0.006214 0.083336
v -0.029263 -0.118214 -0.147118
v -0.029263 -0.006214 -0.147118
vt 0.219880 0.717789
vt 0.219880 0.725552
vt 0.203853 0.725552
vt 0.203853 0.717789
vt 0.219880 0.733015
vt 0.203853 0.733015
vt 0.219880 0.739894
vt 0.203853 0.739894
vt 0.219880 0.745924
vt 0.203853 0.745924
vt 0.171798 0.689655
vt 0.171798 0.696187
vt 0.155771 0.696187
vt 0.155771 0.689655
vt 0.171798 0.703639
vt 0.155771 0.703639
vt 0.171798 0.711725
vt 0.155771 0.711725
vt 0.171798 0.720134
vt 0.155771 0.720134
vt 0.171798 0.728543
vt 0.155771 0.728543
vt 0.171798 0.736629
vt 0.155771 0.736629
vt 0.171798 0.744081
vt 0.155771 0.744081
vt 0.171798 0.750613
vt 0.155771 0.750613
vt 0.203853 0.689655
vt 0.203853 0.695684
vt 0.187826 0.695684
vt 0.187826 0.689655
vt 0.203853 0.702563
vt 0.187826 0.702563
vt 0.203853 0.710027
vt 0.187826 0.710027
vt 0.203853 0.717789
vt 0.187826 0.717789
vt 0.203853 0.725552
vt 0.187826 0.725552
vt 0.203853 0.733016
vt 0.187826 0.733016
vt 0.203853 0.739894
vt 0.187826 0.739894
vt 0.203853 0.745924
vt 0.187826 0.745924
vt 0.171798 0.750613
vt 0.171798 0.744081
vt 0.187826 0.744081
vt 0.187826 0.750613
vt 0.171798 0.736629
vt 0.187826 0.736629
vt 0.171798 0.728543
vt 0.187826 0.728543
vt 0.171798 0.720134
vt 0.187826 0.720134
vt 0.171798 0.711725
vt 0.187826 0.711725
vt 0.171798 0.703639
vt 0.187826 0.703639
vt 0.171798 0.696187
vt 0.187826 0.696187
vt 0.171798 0.689655
vt 0.187826 0.689655
vt 0.219880 0.689655
vt 0.219880 0.695684
vt 0.203853 0.695684
vt 0.203853 0.689655
vt 0.219880 0.702563
vt 0.203853 0.702563
vt 0.219880 0.710027
vt 0.203853 0.710027
vt 0.034230 0.689655
vt 0.040250 0.691183
vt 0.045921 0.694301
vt 0.051024 0.698891
vt 0.055365 0.704775
vt 0.058775 0.711728
vt 0.061124 0.719483
vt 0.062321 0.727740
vt 0.062321 0.736184
vt 0.061124 0.744489
vt 0.058775 0.752337
vt 0.055365 0.759426
vt 0.051024 0.765482
vt 0.045921 0.770275
vt 0.040250 0.773619
vt 0.034230 0.775386
vt 0.028092 0.775508
vt 0.022071 0.773980
vt 0.016400 0.770862
vt 0.011297 0.766272
vt 0.006957 0.760388
vt 0.003546 0.753435
vt 0.001197 0.745681
vt 0.000000 0.737423
vt 0.000000 0.728979
vt 0.001197 0.720674
vt 0.003546 0.712826
vt 0.006957 0.705738
vt 0.011297 0.699681
vt 0.016401 0.694888
vt 0.022071 0.691544
vt 0.028092 0.689777
vt 0.672507 0.965517
vt 0.672507 0.655172
vt 0.714226 0.655172
vt 0.714226 0.965517
vt 0.916562 0.689655
vt 0.851481 0.689655
vt 0.851481 0.000000
vt 0.916562 0.000000
vt 0.672507 1.000000
vt 0.607426 1.000000
vt 0.607426 0.655172
vt 0.672507 0.655172
vt 0.000000 0.689655
vt 0.000000 0.000000
vt 0.271172 0.000000
vt 0.135586 0.305040
vt 0.128973 0.305804
vt 0.122614 0.308068
vt 0.116754 0.311745
vt 0.111618 0.316693
vt 0.107402 0.322723
vt 0.104270 0.329601
vt 0.102341 0.337065
vt 0.101690 0.344828
vt 0.102341 0.352590
vt 0.104270 0.360054
vt 0.107402 0.366932
vt 0.111618 0.372962
vt 0.116754 0.377910
vt 0.122614 0.381587
vt 0.128973 0.383851
vt 0.135586 0.384615
vt 0.607426 1.000000
vt 0.542345 1.000000
vt 0.542344 0.655172
vt 0.607426 0.655172
vt 0.786399 0.000000
vt 0.851481 0.000000
vt 0.851481 0.689655
vt 0.786400 0.689655
vt 0.284731 0.017241
vt 0.284731 0.672414
vt 0.271172 0.689655
vt 0.271172 0.000000
vt 0.528786 0.017241
vt 0.542344 0.000000
vt 0.528786 0.672414
vt 0.542344 0.689655
vt 0.786399 0.000000
vt 0.786399 0.655172
vt 0.664372 0.644828
vt 0.670985 0.644064
vt 0.677344 0.641800
vt 0.683204 0.638123
vt 0.688340 0.633175
vt 0.692556 0.627145
vt 0.695688 0.620267
vt 0.697617 0.612803
vt 0.698268 0.605041
vt 0.697617 0.597278
vt 0.695688 0.589814
vt 0.692556 0.582936
vt 0.688340 0.576906
vt 0.683204 0.571958
vt 0.677344 0.568281
vt 0.670985 0.566017
vt 0.664372 0.565253
vt 1.000000 0.000000
vt 1.000000 0.655172
vt 0.958281 0.655172
vt 0.958281 0.000000
vt 0.958281 0.000000
vt 0.958281 0.655172
vt 0.916562 0.655172
vt 0.916562 0.000000
vt 0.714226 0.965517
vt 0.714226 0.655172
vt 0.755945 0.655172
vt 0.755945 0.965517
vt 0.664372 0.367374
vt 0.670985 0.366609
vt 0.677344 0.364345
vt 0.683204 0.360669
vt 0.688340 0.355720
vt 0.692556 0.349691
vt 0.695688 0.342812
vt 0.697617 0.335348
vt 0.698268 0.327586
vt 0.697617 0.319824
vt 0.695688 0.312360
vt 0.692556 0.305481
vt 0.688340 0.299452
vt 0.683204 0.294504
vt 0.677344 0.290827
vt 0.670985 0.288563
vt 0.664372 0.287798
vt 0.109046 0.728543
vt 0.085684 0.728543
vt 0.085684 0.720134
vt 0.109046 0.720134
vt 0.109046 0.750613
vt 0.085684 0.750613
vt 0.085684 0.744081
vt 0.109046 0.744081
vt 0.085684 0.736629
vt 0.109046 0.736629
vt 0.062321 0.711725
vt 0.085684 0.711725
vt 0.085684 0.720134
vt 0.062321 0.720134
vt 0.109046 0.711725
vt 0.085684 0.711725
vt 0.085684 0.703639
vt 0.109046 0.703639
vt 0.109046 0.696187
vt 0.085684 0.696187
vt 0.085684 0.689655
vt 0.109046 0.689655
vt 0.155771 0.717789
vt 0.132409 0.717789
vt 0.132409 0.710027
vt 0.155771 0.710027
vt 0.109046 0.710027
vt 0.132409 0.710027
vt 0.132409 0.717789
vt 0.109046 0.717789
vt 0.062321 0.696187
vt 0.085684 0.696187
vt 0.085684 0.703639
vt 0.062321 0.703639
vt 0.132409 0.725552
vt 0.109046 0.725552
vt 0.132409 0.702563
vt 0.155771 0.702563
vt 0.155771 0.745924
vt 0.132409 0.745924
vt 0.132409 0.739894
vt 0.155771 0.739894
vt 0.109046 0.695684
vt 0.132409 0.695684
vt 0.132409 0.702563
vt 0.109046 0.702563
vt 0.132409 0.733015
vt 0.155771 0.733015
vt 0.109046 0.739894
vt 0.132409 0.739894
vt 0.132409 0.745924
vt 0.109046 0.745924
vt 0.155771 0.695684
vt 0.132409 0.695684
vt 0.132409 0.689655
vt 0.155771 0.689655
vt 0.109046 0.733016
vt 0.132409 0.733016
vt 0.109046 0.689655
vt 0.132409 0.689655
vt 0.062321 0.736629
vt 0.085684 0.736629
vt 0.085684 0.744081
vt 0.062321 0.744081
vt 0.142199 0.383851
vt 0.148558 0.381587
vt 0.154418 0.377910
vt 0.159555 0.372962
vt 0.163770 0.366933
vt 0.166902 0.360054
vt 0.168831 0.352590
vt 0.169483 0.344828
vt 0.168831 0.337065
vt 0.166902 0.329601
vt 0.163770 0.322723
vt 0.159555 0.316693
vt 0.154418 0.311745
vt 0.148558 0.308068
vt 0.142199 0.305804
vt 0.271172 0.689655
vt 0.155771 0.725552
vt 0.132409 0.725552
vt 0.085684 0.728543
vt 0.062321 0.728543
vt 0.657759 0.288563
vt 0.651400 0.290827
vt 0.645540 0.294504
vt 0.640404 0.299452
vt 0.636188 0.305481
vt 0.633056 0.312360
vt 0.631127 0.319824
vt 0.630475 0.327586
vt 0.631127 0.335348
vt 0.633056 0.342812
vt 0.636188 0.349691
vt 0.640404 0.355720
vt 0.645540 0.360669
vt 0.651400 0.364345
vt 0.657759 0.366610
vt 0.657759 0.566017
vt 0.651400 0.568281
vt 0.645540 0.571958
vt 0.640404 0.576906
vt 0.636188 0.582936
vt 0.633056 0.589814
vt 0.631127 0.597278
vt 0.630475 0.605041
vt 0.631127 0.612803
vt 0.633056 0.620267
vt 0.636188 0.627145
vt 0.640404 0.633175
vt 0.645540 0.638123
vt 0.651400 0.641800
vt 0.657759 0.644064
vt 0.542345 0.655172
vt 0.542344 0.000000
vt 0.062321 0.689655
vt 0.085684 0.689655
vt 0.085684 0.750613
vt 0.062321 0.750613
vn -0.0980 0.0000 0.9952
vn -0.2903 0.0000 0.9569
vn -0.4714 0.0000 0.8819
vn -0.6344 0.0000 0.7730
vn -0.7730 0.0000 0.6344
vn -0.8819 0.0000 0.4714
vn -0.9569 0.0000 0.2903
vn -0.9952 0.0000 0.0980
vn -0.9952 0.0000 -0.0980
vn -0.9569 0.0000 -0.2903
vn -0.8819 0.0000 -0.4714
vn -0.7730 0.0000 -0.6344
vn -0.6344 0.0000 -0.7730
vn -0.4714 0.0000 -0.8819
vn -0.2903 0.0000 -0.9569
vn -0.0980 -0.0000 -0.9952
vn 0.0980 -0.0000 -0.9952
vn 0.2903 0.0000 -0.9569
vn 0.4714 0.0000 -0.8819
vn 0.6344 0.0000 -0.7730
vn 0.7730 0.0000 -0.6344
vn 0.8819 0.0000 -0.4714
vn 0.9569 0.0000 -0.2903
vn 0.9952 0.0000 -0.0980
vn 0.9952 0.0000 0.0980
vn 0.9569 0.0000 0.2903
vn 0.8819 0.0000 0.4714
vn 0.7730 0.0000 0.6344
vn 0.6344 -0.0000 0.7730
vn 0.4714 0.0000 0.8819
vn 0.2903 -0.0000 0.9569
vn 0.0980 -0.0000 0.9952
vn 0.0000 1.0000 -0.0000
vn 1.0000 0.0000 0.0000
vn 0.0000 0.0000 1.0000
vn -1.0000 0.0000 0.0000
vn 0.0000 -1.0000 -0.0000
vn 0.0000 0.0000 -1.0000
usemtl Material
s off
f 1/1/1 2/2/1 52/3/1 70/4/1
f 2/2/2 3/5/2 51/6/2 52/3/2
f 3/5/3 4/7/3 72/8/3 51/6/3
f 4/7/4 5/9/4 54/10/4 72/8/4
f 5/11/5 6/12/5 57/13/5 54/14/5
f 6/12/6 7/15/6 73/16/6 57/13/6
f 7/15/7 8/17/7 71/18/7 73/16/7
f 8/17/8 9/19/8 66/20/8 71/18/8
f 9/19/9 10/21/9 63/22/9 66/20/9
f 10/21/10 11/23/10 65/24/10 63/22/10
f 11/23/11 12/25/11 79/26/11 65/24/11
f 12/25/12 13/27/12 64/28/12 79/26/12
f 13/29/13 14/30/13 55/31/13 64/32/13
f 14/30/14 15/33/14 56/34/14 55/31/14
f 15/33/15 16/35/15 58/36/15 56/34/15
f 16/35/16 17/37/16 69/38/16 58/36/16
f 17/37/17 18/39/17 78/40/17 69/38/17
f 18/39/18 19/41/18 59/42/18 78/40/18
f 19/41/19 20/43/19 62/44/19 59/42/19
f 20/43/20 21/45/20 77/46/20 62/44/20
f 21/47/21 22/48/21 75/49/21 77/50/21
f 22/48/22 23/51/22 74/52/22 75/49/22
f 23/51/23 24/53/23 76/54/23 74/52/23
f 24/53/24 25/55/24 60/56/24 76/54/24
f 25/55/25 26/57/25 53/58/25 60/56/25
f 26/57/26 27/59/26 49/60/26 53/58/26
f 27/59/27 28/61/27 50/62/27 49/60/27
f 28/61/28 29/63/28 67/64/28 50/62/28
f 29/65/29 30/66/29 68/67/29 67/68/29
f 30/66/30 31/69/30 61/70/30 68/67/30
f 31/69/31 32/71/31 80/72/31 61/70/31
f 32/71/32 1/1/32 70/4/32 80/72/32
f 1/73/33 32/74/33 31/75/33 30/76/33 29/77/33 28/78/33 27/79/33 26/80/33 25/81/33 24/82/33 23/83/33 22/84/33 21/85/33 20/86/33 19/87/33 18/88/33 17/89/33 16/90/33 15/91/33 14/92/33 13/93/33 12/94/33 11/95/33 10/96/33 9/97/33 8/98/33 7/99/33 6/100/33 5/101/33 4/102/33 3/103/33 2/104/33
f 37/105/34 39/106/34 46/107/34 48/108/34
f 36/109/35 41/110/35 42/111/35 40/112/35
f 40/113/36 42/114/36 44/115/36 38/116/36
f 38/117/37 34/118/37 36/119/37 115/120/37 125/121/37 129/122/37 97/123/37 91/124/37 127/125/37 85/126/37 87/127/37 123/128/37 143/129/37 105/130/37 119/131/37 117/132/37 83/133/37 81/134/37 89/135/37 103/136/37
f 34/137/34 43/138/34 41/139/34 36/140/34
f 38/141/38 44/142/38 43/143/38 34/144/38
f 35/145/33 39/146/33 42/147/33 41/148/33
f 33/149/33 35/145/33 41/148/33 43/150/33
f 39/146/33 37/151/33 44/152/33 42/147/33
f 37/151/33 33/149/33 43/150/33 44/152/33
f 47/153/33 48/154/33 60/155/33 53/156/33 49/157/33 50/158/33 67/159/33 68/160/33 61/161/33 80/162/33 70/163/33 52/164/33 51/165/33 72/166/33 54/167/33 57/168/33 73/169/33 71/170/33 66/171/33
f 39/172/38 35/173/38 45/174/38 46/175/38
f 33/176/35 37/177/35 48/178/35 47/179/35
f 35/180/36 33/181/36 47/182/36 45/183/36
f 66/171/33 104/184/33 90/185/33 82/186/33 84/187/33 118/188/33 120/189/33 106/190/33 144/191/33 124/192/33 88/193/33 86/194/33 128/195/33 92/196/33 98/197/33 130/198/33 126/199/33 116/200/33 47/153/33
f 109/201/9 110/202/9 116/203/9 115/204/9
f 111/205/12 112/206/12 142/207/12 141/208/12
f 141/208/11 142/207/11 114/209/11 113/210/11
f 89/211/25 90/212/25 104/213/25 103/214/25
f 125/215/7 126/216/7 130/217/7 129/218/7
f 115/204/8 116/203/8 126/216/8 125/215/8
f 97/219/5 98/220/5 92/221/5 91/222/5
f 123/223/32 124/224/32 144/225/32 143/226/32
f 139/227/17 140/228/17 122/229/17 121/230/17
f 83/231/27 84/232/27 82/233/27 81/234/27
f 121/230/16 122/229/16 100/235/16 99/236/16
f 143/226/31 144/225/31 106/237/31 105/238/31
f 91/239/4 92/240/4 128/241/4 127/242/4
f 107/243/19 108/244/19 102/245/19 101/246/19
f 127/242/3 128/241/3 86/247/3 85/248/3
f 93/249/13 94/250/13 112/251/13 111/252/13
f 119/253/29 120/254/29 118/255/29 117/256/29
f 81/234/26 82/233/26 90/212/26 89/211/26
f 95/257/14 96/258/14 94/250/14 93/249/14
f 137/259/20 138/260/20 108/244/20 107/243/20
f 131/261/22 132/262/22 134/263/22 133/264/22
f 135/265/37 131/266/37 133/267/37 137/268/37 107/269/37 101/270/37 139/271/37 121/272/37 99/273/37 95/274/37 93/275/37 111/276/37 141/277/37 113/278/37 109/279/37 115/120/37 36/119/37 40/280/37 38/117/37 103/136/37
f 87/281/1 88/282/1 124/224/1 123/223/1
f 129/218/6 130/217/6 98/220/6 97/219/6
f 103/214/24 104/213/24 136/283/24 135/284/24
f 113/210/10 114/209/10 110/202/10 109/201/10
f 47/153/33 116/200/33 110/285/33 114/286/33 142/287/33 112/288/33 94/289/33 96/290/33 100/291/33 122/292/33 140/293/33 102/294/33 108/295/33 138/296/33 134/297/33 132/298/33 136/299/33 104/184/33 66/171/33 63/300/33 65/301/33 79/302/33 64/303/33 55/304/33 56/305/33 58/306/33 69/307/33 78/308/33 59/309/33 62/310/33 77/311/33 75/312/33 74/313/33 76/314/33 60/155/33 48/154/33 46/315/33 45/316/33
f 101/246/18 102/245/18 140/228/18 139/227/18
f 105/238/30 106/237/30 120/254/30 119/253/30
f 85/248/2 86/247/2 88/282/2 87/281/2
f 99/236/15 100/235/15 96/258/15 95/257/15
f 135/284/23 136/283/23 132/262/23 131/261/23
f 117/317/28 118/318/28 84/232/28 83/231/28
f 133/264/21 134/263/21 138/319/21 137/320/21
