# Blender v2.83.0 OBJ File: 'boardBridgeBigJump.blend'
# www.blender.org
mtllib Board9.mtl
o Cube_Cube.002
v -1.465979 -0.117785 0.150000
v -1.495243 -0.117785 0.147118
v -1.523382 -0.117785 0.138582
v -1.549315 -0.117785 0.124721
v -1.572045 -0.117785 0.106066
v -1.590700 -0.117785 0.083336
v -1.604561 -0.117785 0.057403
v -1.613097 -0.117785 0.029264
v -1.615979 -0.117785 0.000000
v -1.613097 -0.117785 -0.029263
v -1.604561 -0.117785 -0.057402
v -1.590700 -0.117785 -0.083335
v -1.572045 -0.117785 -0.106066
v -1.549315 -0.117785 -0.124720
v -1.523382 -0.117785 -0.138582
v -1.495243 -0.117785 -0.147118
v -1.465979 -0.117785 -0.150000
v -1.436716 -0.117785 -0.147118
v -1.408576 -0.117785 -0.138582
v -1.382643 -0.117785 -0.124720
v -1.359913 -0.117785 -0.106066
v -1.341259 -0.117785 -0.083335
v -1.327397 -0.117785 -0.057402
v -1.318861 -0.117785 -0.029263
v -1.315979 -0.117785 0.000000
v -1.318861 -0.117785 0.029264
v -1.327397 -0.117785 0.057403
v -1.341259 -0.117785 0.083336
v -1.359913 -0.117785 0.106066
v -1.382644 -0.117785 0.124721
v -1.408577 -0.117785 0.138582
v -1.436716 -0.117785 0.147118
v 1.765233 -0.130884 -0.800000
v 1.705233 0.169116 -0.740000
v 1.765233 -0.130884 0.800000
v 1.705233 0.169116 0.740000
v -1.771969 -0.130884 -0.800000
v -1.711969 0.169116 -0.740000
v -1.771969 -0.130884 0.800000
v -1.711969 0.169116 0.740000
v 1.765233 0.169116 -0.800000
v 1.765233 0.169116 0.800000
v -1.771969 0.169116 0.800000
v -1.771969 0.169116 -0.800000
v 1.705233 -0.030884 -0.740000
v 1.705233 -0.030884 0.740000
v -1.711969 -0.030884 0.740000
v -1.711969 -0.030884 -0.740000
v 1.015233 -0.130884 -0.800000
v -1.021969 -0.130884 -0.800000
v 1.015233 -0.130884 0.800000
v 1.015232 0.169116 0.740000
v 1.015233 -0.030884 -0.740000
v 1.015232 0.169116 0.800000
v 1.015233 0.169116 -0.740000
v 1.015233 0.169116 -0.800000
v 1.015232 -0.030884 0.740000
v -1.021969 -0.130884 0.800000
v -1.021969 0.169116 0.740000
v -1.021969 -0.030884 -0.740000
v -1.021969 0.169116 -0.800000
v -1.021969 0.169116 0.800000
v -1.021969 0.169116 -0.740000
v -1.021969 -0.030884 0.740000
v -1.021969 -0.030884 0.444000
v -1.021969 -0.030884 0.148000
v -1.021969 -0.030884 -0.148000
v -1.021969 -0.030884 -0.444000
v -1.021969 -0.130884 0.148001
v -1.021969 -0.130884 -0.148000
v 1.015232 -0.030884 0.444000
v 1.015232 -0.030884 0.148000
v 1.015233 -0.030884 -0.148000
v 1.015233 -0.030884 -0.444000
v 1.015233 -0.130884 -0.148000
v 1.015233 -0.130884 0.148000
v -1.495243 -0.030884 0.147118
v -1.465979 -0.030884 0.150000
v -1.436716 -0.030884 0.147118
v -1.408577 -0.030884 0.138582
v -1.523382 -0.030884 0.138582
v -1.549315 -0.030884 0.124721
v -1.382644 -0.030884 0.124721
v -1.359913 -0.030884 0.106066
v -1.590700 -0.030884 0.083336
v -1.572045 -0.030884 0.106066
v -1.341259 -0.030884 0.083336
v -1.604561 -0.030884 0.057403
v -1.613097 -0.030884 0.029264
v -1.327397 -0.030884 0.057403
v -1.318861 -0.030884 0.029264
v -1.615979 -0.030884 0.000000
v -1.604561 -0.030884 -0.057402
v -1.613097 -0.030884 -0.029263
v -1.590700 -0.030884 -0.083335
v -1.549315 -0.030884 -0.124720
v -1.572045 -0.030884 -0.106066
v -1.523382 -0.030884 -0.138582
v -1.495243 -0.030884 -0.147118
v -1.436716 -0.030884 -0.147118
v -1.465979 -0.030884 -0.150000
v -1.382643 -0.030884 -0.124720
v -1.408576 -0.030884 -0.138582
v -1.359913 -0.030884 -0.106066
v -1.341259 -0.030884 -0.083335
v -1.327397 -0.030884 -0.057402
v -1.318861 -0.030884 -0.029263
v -1.315979 -0.030884 0.000000
v -0.721969 -0.030884 -0.148000
v 0.415233 -0.030884 -0.148000
v 0.715232 -0.030884 -0.148000
v 0.415233 -0.130884 -0.148000
v 0.415233 -0.030884 0.148000
v 0.415233 -0.130884 0.148000
v -0.721969 -0.030884 0.148000
v 0.715232 -0.030884 0.148000
v 0.415233 0.069116 -0.148000
v 0.415233 0.069116 0.148000
v -0.721969 -0.130884 -0.148000
v -0.721969 -0.130884 0.148000
vt 0.751101 0.351113
vt 0.751101 0.358719
vt 0.728816 0.358719
vt 0.728816 0.351113
vt 0.751101 0.365972
vt 0.728816 0.365972
vt 0.751101 0.372594
vt 0.728816 0.372594
vt 0.751101 0.378330
vt 0.728816 0.378331
vt 0.751101 0.382961
vt 0.728816 0.382961
vt 0.751101 0.386307
vt 0.728816 0.386307
vt 0.253081 0.804303
vt 0.253081 0.808569
vt 0.230796 0.808569
vt 0.230796 0.804303
vt 0.253081 0.813999
vt 0.230796 0.813999
vt 0.253081 0.820384
vt 0.230796 0.820384
vt 0.253081 0.827478
vt 0.230796 0.827478
vt 0.253081 0.835009
vt 0.230796 0.835009
vt 0.253081 0.842688
vt 0.230796 0.842688
vt 0.253081 0.850219
vt 0.230796 0.850219
vt 0.253081 0.857314
vt 0.230796 0.857314
vt 0.253081 0.863698
vt 0.230796 0.863698
vt 0.230796 0.912443
vt 0.230796 0.907013
vt 0.253081 0.907013
vt 0.253081 0.912443
vt 0.230796 0.900628
vt 0.253081 0.900628
vt 0.230796 0.893534
vt 0.253081 0.893534
vt 0.230796 0.886003
vt 0.253081 0.886003
vt 0.230796 0.878324
vt 0.253081 0.878324
vt 0.230796 0.870793
vt 0.253081 0.870793
vt 0.230796 0.863698
vt 0.253081 0.863698
vt 0.907002 0.882582
vt 0.907002 0.889576
vt 0.884717 0.889576
vt 0.884717 0.882582
vt 0.907002 0.897054
vt 0.884717 0.897054
vt 0.907002 0.904729
vt 0.884717 0.904729
vt 0.907002 0.912305
vt 0.884717 0.912305
vt 0.907002 0.919492
vt 0.884717 0.919492
vt 0.907002 0.926013
vt 0.884717 0.926013
vt 0.751101 0.322979
vt 0.751101 0.329105
vt 0.728816 0.329105
vt 0.728816 0.322979
vt 0.751101 0.336016
vt 0.728816 0.336016
vt 0.751101 0.343448
vt 0.728816 0.343448
vt 0.288298 0.910028
vt 0.280904 0.908530
vt 0.273940 0.905591
vt 0.267672 0.901325
vt 0.262342 0.895895
vt 0.258154 0.889511
vt 0.255270 0.882416
vt 0.253800 0.874885
vt 0.253800 0.867206
vt 0.255271 0.859675
vt 0.258156 0.852581
vt 0.262345 0.846196
vt 0.267676 0.840767
vt 0.273944 0.836501
vt 0.280909 0.833562
vt 0.288302 0.832064
vt 0.295841 0.832064
vt 0.303234 0.833562
vt 0.310199 0.836501
vt 0.316466 0.840767
vt 0.321796 0.846196
vt 0.325984 0.852581
vt 0.328869 0.859675
vt 0.330339 0.867207
vt 0.330338 0.874885
vt 0.328867 0.882417
vt 0.325982 0.889511
vt 0.321794 0.895895
vt 0.316463 0.901325
vt 0.310195 0.905591
vt 0.303230 0.908530
vt 0.295836 0.910028
vt 0.754460 0.322979
vt 0.677528 0.322979
vt 0.677528 0.000000
vt 0.754460 0.000000
vt 0.230796 0.955700
vt 0.153864 0.955700
vt 0.153864 0.804303
vt 0.230796 0.804303
vt 0.330732 0.832064
vt 0.253800 0.832064
vt 0.253800 0.417820
vt 0.330731 0.417820
vt 0.933968 0.195697
vt 0.857036 0.195697
vt 0.857036 0.000000
vt 0.933968 0.000000
vt 0.346194 0.417820
vt 0.153864 0.417820
vt 0.153864 0.247558
vt 0.153864 0.170262
vt 0.153864 0.000000
vt 0.346193 0.000000
vt 0.805748 0.298756
vt 0.805748 0.000000
vt 0.857036 0.000000
vt 0.857036 0.298756
vt 0.792346 0.788635
vt 0.792346 0.402152
vt 0.807728 0.386483
vt 0.807728 0.804303
vt 0.615455 0.402152
vt 0.615455 0.386483
vt 0.984618 0.788635
vt 0.984618 0.402152
vt 1.000000 0.386483
vt 1.000000 0.804303
vt 0.807728 0.402152
vt 0.807728 0.386483
vt 0.000000 0.417820
vt 0.024608 0.611062
vt 0.025347 0.618703
vt 0.027535 0.626052
vt 0.031089 0.632824
vt 0.035871 0.638759
vt 0.041699 0.643631
vt 0.048347 0.647251
vt 0.055561 0.649480
vt 0.063063 0.650232
vt 0.070565 0.649480
vt 0.077779 0.647251
vt 0.084427 0.643631
vt 0.090254 0.638759
vt 0.095036 0.632824
vt 0.098590 0.626052
vt 0.100778 0.618703
vt 0.101517 0.611062
vt 0.176891 0.572413
vt 0.176891 0.649710
vt 0.176891 0.727007
vt 0.176891 0.804303
vt 0.000000 0.804303
vt 0.754460 0.383176
vt 0.754460 0.000000
vt 0.805748 0.000000
vt 0.805748 0.383176
vt 0.782141 0.943588
vt 0.782141 0.804303
vt 0.833429 0.804303
vt 0.833429 0.943588
vt 0.628277 0.984344
vt 0.628277 0.804303
vt 0.679565 0.804303
vt 0.679565 0.984344
vt 0.615455 0.804303
vt 0.615455 0.788635
vt 0.628277 0.984344
vt 0.576989 0.984344
vt 0.576989 0.804303
vt 0.628277 0.804303
vt 0.000000 0.804303
vt 0.076932 0.804303
vt 0.076932 1.000000
vt 0.000000 1.000000
vt 0.500638 0.386483
vt 0.500638 0.309187
vt 0.500638 0.231890
vt 0.500637 0.154593
vt 0.500637 0.077297
vt 0.500637 0.000000
vt 0.677528 0.000000
vt 0.677528 0.386483
vt 0.500057 0.816415
vt 0.500057 0.804303
vt 0.576989 0.804303
vt 0.576989 0.935917
vt 0.551345 0.935917
vt 0.551345 0.876166
vt 0.551345 0.816415
vt 0.807728 0.804303
vt 0.807728 0.788635
vt 0.857036 0.195697
vt 0.933968 0.195697
vt 0.933968 0.364501
vt 0.908324 0.364501
vt 0.908324 0.287866
vt 0.908324 0.211231
vt 0.857036 0.211231
vt 0.538523 0.386483
vt 0.538523 0.556745
vt 0.538523 0.634042
vt 0.538523 0.804303
vt 0.346194 0.804303
vt 0.346194 0.386483
vt 0.423125 0.955700
vt 0.346194 0.955700
vt 0.346194 0.804303
vt 0.423125 0.804303
vt 0.782141 0.943588
vt 0.730853 0.943588
vt 0.730853 0.804303
vt 0.782141 0.804303
vt 0.000000 0.247558
vt 0.000000 0.170262
vt 0.474413 0.804303
vt 0.500057 0.804303
vt 0.500057 0.935917
vt 0.423125 0.935917
vt 0.423125 0.923806
vt 0.474413 0.923806
vt 0.474413 0.864055
vt 0.705209 0.804303
vt 0.730853 0.804303
vt 0.730853 0.960861
vt 0.705209 0.960861
vt 0.705209 0.882582
vt 0.128220 0.804303
vt 0.153864 0.804303
vt 0.153864 0.973108
vt 0.076932 0.973108
vt 0.076932 0.957574
vt 0.128220 0.957574
vt 0.128220 0.880939
vt 0.884717 0.925420
vt 0.859073 0.925420
vt 0.859073 0.864862
vt 0.859073 0.804303
vt 0.884717 0.804303
vt 0.346194 0.231890
vt 0.346194 0.154593
vt 0.423729 0.154593
vt 0.423729 0.231890
vt 0.100778 0.603420
vt 0.098590 0.596072
vt 0.095036 0.589300
vt 0.090254 0.583364
vt 0.084427 0.578492
vt 0.077779 0.574873
vt 0.070565 0.572644
vt 0.063063 0.571891
vt 0.055561 0.572644
vt 0.048347 0.574873
vt 0.041699 0.578492
vt 0.035871 0.583364
vt 0.031089 0.589300
vt 0.027535 0.596072
vt 0.025347 0.603420
vt 0.176891 0.417820
vt 0.176891 0.495117
vt 0.831392 0.298756
vt 0.857036 0.298756
vt 0.857036 0.375391
vt 0.831392 0.375391
vt 0.703172 0.382730
vt 0.703172 0.322979
vt 0.728816 0.322979
vt 0.728816 0.382730
vt 0.805748 0.375391
vt 0.805748 0.298756
vt 0.679565 0.960861
vt 0.833429 0.804303
vt 0.615455 0.556745
vt 0.615455 0.634042
vt 0.703172 0.383538
vt 0.677528 0.383538
vt 0.677528 0.322979
vt 0.703172 0.322979
vt 0.253800 0.572413
vt 0.253800 0.649710
vt 0.910361 0.882582
vt 0.884717 0.882582
vt 0.884717 0.804303
vt 0.910361 0.804303
vn 0.0980 0.0000 -0.9952
vn 0.2903 0.0000 -0.9569
vn 0.4714 0.0000 -0.8819
vn 0.6344 0.0000 -0.7730
vn 0.7730 0.0000 -0.6344
vn 0.8819 0.0000 -0.4714
vn 0.9569 0.0000 -0.2903
vn 0.9952 0.0000 -0.0980
vn 0.9952 0.0000 0.0980
vn 0.9569 -0.0000 0.2903
vn 0.8819 0.0000 0.4714
vn 0.7730 0.0000 0.6344
vn 0.6344 0.0000 0.7730
vn 0.4714 0.0000 0.8819
vn 0.2903 0.0000 0.9569
vn 0.0980 0.0000 0.9952
vn -0.0980 0.0000 0.9952
vn -0.2903 0.0000 0.9569
vn -0.4714 0.0000 0.8819
vn -0.6344 0.0000 0.7730
vn -0.7730 0.0000 0.6344
vn -0.8819 0.0000 0.4714
vn -0.9569 0.0000 0.2903
vn -0.9952 0.0000 0.0980
vn -0.9952 0.0000 -0.0980
vn -0.9569 0.0000 -0.2903
vn -0.8819 0.0000 -0.4714
vn -0.7730 0.0000 -0.6344
vn -0.6344 0.0000 -0.7730
vn -0.4714 0.0000 -0.8819
vn -0.2903 0.0000 -0.9569
vn -0.0980 0.0000 -0.9952
vn 0.0000 1.0000 0.0000
vn 1.0000 0.0000 -0.0000
vn 0.0000 0.0000 1.0000
vn -1.0000 0.0000 0.0000
vn -0.0000 -0.0000 -1.0000
vn 0.0000 -1.0000 -0.0000
vn 0.3162 0.9487 -0.0000
usemtl None
s off
f 1/1/1 2/2/1 77/3/1 78/4/1
f 2/2/2 3/5/2 81/6/2 77/3/2
f 3/5/3 4/7/3 82/8/3 81/6/3
f 4/7/4 5/9/4 86/10/4 82/8/4
f 5/9/5 6/11/5 85/12/5 86/10/5
f 6/11/6 7/13/6 88/14/6 85/12/6
f 7/15/7 8/16/7 89/17/7 88/18/7
f 8/16/8 9/19/8 92/20/8 89/17/8
f 9/19/9 10/21/9 94/22/9 92/20/9
f 10/21/10 11/23/10 93/24/10 94/22/10
f 11/23/11 12/25/11 95/26/11 93/24/11
f 12/25/12 13/27/12 97/28/12 95/26/12
f 13/27/13 14/29/13 96/30/13 97/28/13
f 14/29/14 15/31/14 98/32/14 96/30/14
f 15/31/15 16/33/15 99/34/15 98/32/15
f 16/35/16 17/36/16 101/37/16 99/38/16
f 17/36/17 18/39/17 100/40/17 101/37/17
f 18/39/18 19/41/18 103/42/18 100/40/18
f 19/41/19 20/43/19 102/44/19 103/42/19
f 20/43/20 21/45/20 104/46/20 102/44/20
f 21/45/21 22/47/21 105/48/21 104/46/21
f 22/47/22 23/49/22 106/50/22 105/48/22
f 23/51/23 24/52/23 107/53/23 106/54/23
f 24/52/24 25/55/24 108/56/24 107/53/24
f 25/55/25 26/57/25 91/58/25 108/56/25
f 26/57/26 27/59/26 90/60/26 91/58/26
f 27/59/27 28/61/27 87/62/27 90/60/27
f 28/61/28 29/63/28 84/64/28 87/62/28
f 29/65/29 30/66/29 83/67/29 84/68/29
f 30/66/30 31/69/30 80/70/30 83/67/30
f 31/69/31 32/71/31 79/72/31 80/70/31
f 32/71/32 1/1/32 78/4/32 79/72/32
f 1/73/33 32/74/33 31/75/33 30/76/33 29/77/33 28/78/33 27/79/33 26/80/33 25/81/33 24/82/33 23/83/33 22/84/33 21/85/33 20/86/33 19/87/33 18/88/33 17/89/33 16/90/33 15/91/33 14/92/33 13/93/33 12/94/33 11/95/33 10/96/33 9/97/33 8/98/33 7/99/33 6/100/33 5/101/33 4/102/33 3/103/33 2/104/33
f 33/105/34 41/106/34 42/107/34 35/108/34
f 35/109/35 42/110/35 54/111/35 51/112/35
f 39/113/36 43/114/36 44/115/36 37/116/36
f 37/117/37 44/118/37 61/119/37 50/120/37
f 35/121/38 51/122/38 76/123/38 75/124/38 49/125/38 33/126/38
f 38/127/34 40/128/34 47/129/34 48/130/34
f 34/131/33 36/132/33 42/133/33 41/134/33
f 36/132/33 52/135/33 54/136/33 42/133/33
f 40/137/33 38/138/33 44/139/33 43/140/33
f 38/138/33 63/141/33 61/142/33 44/139/33
f 47/143/33 92/144/33 94/145/33 93/146/33 95/147/33 97/148/33 96/149/33 98/150/33 99/151/33 101/152/33 100/153/33 103/154/33 102/155/33 104/156/33 105/157/33 106/158/33 107/159/33 108/160/33 66/161/33 67/162/33 68/163/33 60/164/33 48/165/33
f 36/166/36 34/167/36 45/168/36 46/169/36
f 34/170/35 55/171/35 53/172/35 45/173/35
f 40/174/37 59/175/37 64/176/37 47/177/37
f 56/178/33 55/179/33 34/131/33 41/134/33
f 57/180/37 52/181/37 36/182/37 46/183/37
f 49/184/37 56/185/37 41/186/37 33/187/37
f 53/188/33 74/189/33 73/190/33 72/191/33 71/192/33 57/193/33 46/194/33 45/195/33
f 59/196/34 62/197/34 58/198/34 69/199/34 66/200/34 65/201/34 64/202/34
f 62/203/33 59/204/33 40/137/33 43/140/33
f 56/205/36 49/206/36 75/207/36 73/208/36 74/209/36 53/210/36 55/211/36
f 50/212/38 70/213/38 69/214/38 58/215/38 39/216/38 37/217/38
f 58/218/35 62/219/35 43/220/35 39/221/35
f 60/222/35 63/223/35 38/224/35 48/225/35
f 75/124/38 76/123/38 114/226/38 112/227/38
f 67/228/34 70/229/34 50/230/34 61/231/34 63/232/34 60/233/34 68/234/34
f 73/235/37 75/236/37 112/237/37 110/238/37 111/239/37
f 72/240/36 76/241/36 51/242/36 54/243/36 52/244/36 57/245/36 71/246/36
f 76/247/35 72/248/35 116/249/35 113/250/35 114/251/35
f 117/252/39 118/253/39 116/254/39 111/255/39
f 66/161/33 108/160/33 91/256/33 90/257/33 87/258/33 84/259/33 83/260/33 80/261/33 79/262/33 78/263/33 77/264/33 81/265/33 82/266/33 86/267/33 85/268/33 88/269/33 89/270/33 92/144/33 47/143/33 64/271/33 65/272/33
f 110/273/36 112/274/36 114/275/36 113/276/36
f 120/277/34 119/278/34 109/279/34 115/280/34
f 72/191/33 73/190/33 111/255/33 116/254/33
f 110/273/36 113/276/36 118/281/36 117/282/36
f 110/238/37 117/283/37 111/239/37
f 116/249/35 118/284/35 113/250/35
f 119/285/38 120/286/38 69/214/38 70/213/38
f 120/287/35 115/288/35 66/289/35 69/290/35
f 115/291/33 109/292/33 67/162/33 66/161/33
f 109/293/37 119/294/37 70/295/37 67/296/37
