# Blender v2.83.1 OBJ File: 'finalPlatform1.blend'
# www.blender.org
mtllib finalPlatform1.mtl
o Cube
v 0.000000 -0.036753 -0.150000
v 0.014703 -0.036753 -0.149278
v 0.029264 -0.036753 -0.147118
v 0.043543 -0.036753 -0.143541
v 0.057403 -0.036753 -0.138582
v 0.070710 -0.036753 -0.132288
v 0.083336 -0.036753 -0.124720
v 0.095159 -0.036753 -0.115952
v 0.106066 -0.036753 -0.106066
v 0.115952 -0.036753 -0.095159
v 0.124720 -0.036753 -0.083336
v 0.132288 -0.036753 -0.070710
v 0.138582 -0.036753 -0.057403
v 0.143541 -0.036753 -0.043543
v 0.147118 -0.036753 -0.029264
v 0.149278 -0.036753 -0.014703
v 0.150000 -0.036753 0.000000
v 0.149278 -0.036753 0.014703
v 0.147118 -0.036753 0.029264
v 0.143541 -0.036753 0.043543
v 0.138582 -0.036753 0.057403
v 0.132288 -0.036753 0.070710
v 0.124720 -0.036753 0.083336
v 0.115952 -0.036753 0.095159
v 0.106066 -0.036753 0.106066
v 0.095159 -0.036753 0.115952
v 0.083335 -0.036753 0.124720
v 0.070709 -0.036753 0.132288
v 0.057402 -0.036753 0.138582
v 0.043543 -0.036753 0.143541
v 0.029263 -0.036753 0.147118
v 0.014702 -0.036753 0.149278
v -0.000000 -0.036753 0.150000
v -0.014703 -0.036753 0.149278
v -0.029264 -0.036753 0.147118
v -0.043543 -0.036753 0.143541
v -0.057403 -0.036753 0.138582
v -0.070710 -0.036753 0.132288
v -0.083336 -0.036753 0.124720
v -0.095159 -0.036753 0.115951
v -0.106066 -0.036753 0.106066
v -0.115952 -0.036753 0.095159
v -0.124721 -0.036753 0.083335
v -0.132288 -0.036753 0.070709
v -0.138582 -0.036753 0.057402
v -0.143541 -0.036753 0.043543
v -0.147118 -0.036753 0.029264
v -0.149278 -0.036753 0.014703
v -0.150000 -0.036753 0.000000
v -0.149278 -0.036753 -0.014702
v -0.147118 -0.036753 -0.029263
v -0.143541 -0.036753 -0.043543
v -0.138582 -0.036753 -0.057402
v -0.132288 -0.036753 -0.070709
v -0.124721 -0.036753 -0.083335
v -0.115952 -0.036753 -0.095159
v -0.106066 -0.036753 -0.106066
v -0.095159 -0.036753 -0.115951
v -0.083336 -0.036753 -0.124720
v -0.070710 -0.036753 -0.132288
v -0.057403 -0.036753 -0.138582
v -0.043543 -0.036753 -0.143541
v -0.029264 -0.036753 -0.147118
v -0.014703 -0.036753 -0.149278
v 0.600000 0.100000 -0.300000
v 0.600000 -0.100000 -0.300000
v 0.600000 0.100000 0.300000
v 0.600000 -0.100000 0.300000
v -0.600000 0.100000 -0.300000
v -0.600000 -0.100000 -0.300000
v -0.600000 0.100000 0.300000
v -0.600000 -0.100000 0.300000
v 0.083336 0.100000 -0.124720
v -0.150000 0.100000 0.000000
v 0.149278 0.100000 -0.014703
v 0.147118 0.100000 -0.029264
v 0.070710 0.100000 -0.132288
v 0.143541 0.100000 -0.043543
v 0.147118 0.100000 0.029264
v 0.143541 0.100000 0.043543
v 0.132288 0.100000 0.070710
v 0.138582 0.100000 0.057403
v 0.149278 0.100000 0.014703
v 0.138582 0.100000 -0.057403
v 0.043543 0.100000 -0.143541
v -0.083336 0.100000 -0.124720
v 0.057403 0.100000 -0.138582
v 0.150000 0.100000 0.000000
v -0.149278 0.100000 0.014703
v 0.124720 0.100000 0.083336
v 0.115952 0.100000 0.095159
v -0.124721 0.100000 -0.083335
v -0.132288 0.100000 -0.070709
v -0.147118 0.100000 -0.029263
v -0.115952 0.100000 -0.095159
v -0.106066 0.100000 -0.106066
v -0.095159 0.100000 -0.115951
v -0.057403 0.100000 -0.138582
v -0.070710 0.100000 -0.132288
v -0.138582 0.100000 -0.057402
v -0.143541 0.100000 -0.043543
v -0.149278 0.100000 -0.014702
v -0.029264 0.100000 -0.147118
v -0.043543 0.100000 -0.143541
v -0.014703 0.100000 -0.149278
v 0.000000 0.100000 -0.150000
v -0.115952 0.100000 0.095159
v -0.124721 0.100000 0.083335
v 0.014702 0.100000 0.149278
v -0.000000 0.100000 0.150000
v -0.106066 0.100000 0.106066
v -0.014703 0.100000 0.149278
v 0.014703 0.100000 -0.149278
v 0.029264 0.100000 -0.147118
v 0.132288 0.100000 -0.070710
v 0.124720 0.100000 -0.083336
v 0.115952 0.100000 -0.095159
v -0.043543 0.100000 0.143541
v -0.143541 0.100000 0.043543
v -0.029264 0.100000 0.147118
v -0.057403 0.100000 0.138582
v 0.029263 0.100000 0.147118
v 0.070709 0.100000 0.132288
v 0.057402 0.100000 0.138582
v 0.043543 0.100000 0.143541
v -0.132288 0.100000 0.070709
v -0.138582 0.100000 0.057402
v -0.147118 0.100000 0.029264
v 0.106066 0.100000 -0.106066
v 0.095159 0.100000 -0.115952
v -0.095159 0.100000 0.115951
v -0.083336 0.100000 0.124720
v -0.070710 0.100000 0.132288
v 0.106066 0.100000 0.106066
v 0.095159 0.100000 0.115952
v 0.083335 0.100000 0.124721
vt 0.358215 0.725237
vt 0.358215 0.733364
vt 0.272745 0.733364
vt 0.272745 0.725237
vt 0.358215 0.741592
vt 0.272745 0.741592
vt 0.358215 0.749842
vt 0.272745 0.749842
vt 0.358215 0.758036
vt 0.272745 0.758036
vt 0.358215 0.766094
vt 0.272745 0.766094
vt 0.358215 0.773938
vt 0.272745 0.773938
vt 0.358215 0.781494
vt 0.272745 0.781494
vt 0.358215 0.788687
vt 0.272745 0.788687
vt 0.358215 0.795450
vt 0.272745 0.795450
vt 0.460471 0.672740
vt 0.460471 0.679141
vt 0.375000 0.679141
vt 0.375000 0.672740
vt 0.460471 0.686022
vt 0.375000 0.686022
vt 0.460471 0.693317
vt 0.375000 0.693317
vt 0.460471 0.700955
vt 0.375000 0.700955
vt 0.460471 0.708862
vt 0.375000 0.708862
vt 0.460471 0.716963
vt 0.375000 0.716963
vt 0.460471 0.725179
vt 0.375000 0.725179
vt 0.460471 0.733431
vt 0.375000 0.733431
vt 0.460471 0.741640
vt 0.375000 0.741640
vt 0.460471 0.749727
vt 0.375000 0.749727
vt 0.460471 0.757614
vt 0.375000 0.757614
vt 0.460471 0.765225
vt 0.375000 0.765225
vt 0.460471 0.772486
vt 0.375000 0.772486
vt 0.460471 0.779328
vt 0.375000 0.779328
vt 0.460471 0.785685
vt 0.375000 0.785685
vt 0.460471 0.785274
vt 0.460471 0.778472
vt 0.545941 0.778472
vt 0.545941 0.785274
vt 0.460471 0.771244
vt 0.545941 0.771244
vt 0.460471 0.763661
vt 0.545941 0.763661
vt 0.460471 0.755795
vt 0.545941 0.755795
vt 0.460471 0.747723
vt 0.545941 0.747723
vt 0.460471 0.739521
vt 0.545941 0.739521
vt 0.460471 0.731269
vt 0.545941 0.731269
vt 0.460471 0.723047
vt 0.545941 0.723047
vt 0.460471 0.714933
vt 0.545941 0.714933
vt 0.460471 0.707006
vt 0.545941 0.707006
vt 0.460471 0.699342
vt 0.545941 0.699342
vt 0.460471 0.692015
vt 0.545941 0.692015
vt 0.460471 0.685095
vt 0.545941 0.685095
vt 0.460471 0.678649
vt 0.545941 0.678649
vt 0.460471 0.672740
vt 0.545941 0.672740
vt 0.272745 0.672740
vt 0.272745 0.679051
vt 0.187274 0.679051
vt 0.187274 0.672740
vt 0.272745 0.685854
vt 0.187274 0.685854
vt 0.272745 0.693081
vt 0.187274 0.693081
vt 0.272745 0.700665
vt 0.187274 0.700665
vt 0.272745 0.708530
vt 0.187274 0.708530
vt 0.272745 0.716603
vt 0.187274 0.716603
vt 0.272745 0.724805
vt 0.187274 0.724805
vt 0.272745 0.733056
vt 0.187274 0.733056
vt 0.272745 0.741279
vt 0.187274 0.741279
vt 0.272745 0.749392
vt 0.187274 0.749392
vt 0.272745 0.757320
vt 0.187274 0.757320
vt 0.272745 0.764984
vt 0.187274 0.764984
vt 0.272745 0.772311
vt 0.187274 0.772311
vt 0.272745 0.779230
vt 0.187274 0.779230
vt 0.272745 0.785676
vt 0.187274 0.785676
vt 0.272745 0.791586
vt 0.187274 0.791586
vt 0.272745 0.796902
vt 0.187274 0.796902
vt 0.358215 0.672740
vt 0.358215 0.677469
vt 0.272745 0.677469
vt 0.272745 0.672740
vt 0.358215 0.682838
vt 0.272745 0.682838
vt 0.358215 0.688796
vt 0.272745 0.688796
vt 0.358215 0.695285
vt 0.272745 0.695285
vt 0.358215 0.702242
vt 0.272745 0.702242
vt 0.358215 0.709601
vt 0.272745 0.709601
vt 0.358215 0.717291
vt 0.272745 0.717291
vt 0.018336 0.806825
vt 0.013225 0.799963
vt 0.008888 0.792685
vt 0.005367 0.785060
vt 0.002697 0.777163
vt 0.000902 0.769069
vt 0.000000 0.760857
vt 0.000000 0.752604
vt 0.000902 0.744392
vt 0.002697 0.736298
vt 0.005367 0.728401
vt 0.008888 0.720776
vt 0.013225 0.713498
vt 0.018336 0.706637
vt 0.024173 0.700258
vt 0.030678 0.694422
vt 0.037790 0.689187
vt 0.045440 0.684602
vt 0.053554 0.680712
vt 0.062054 0.677554
vt 0.070858 0.675158
vt 0.079881 0.673548
vt 0.089037 0.672740
vt 0.098237 0.672740
vt 0.107393 0.673548
vt 0.116416 0.675158
vt 0.125220 0.677554
vt 0.133720 0.680712
vt 0.141834 0.684602
vt 0.149484 0.689187
vt 0.156596 0.694422
vt 0.163101 0.700258
vt 0.168938 0.706637
vt 0.174049 0.713498
vt 0.178386 0.720776
vt 0.181907 0.728401
vt 0.184577 0.736298
vt 0.186372 0.744392
vt 0.187274 0.752604
vt 0.187274 0.760857
vt 0.186372 0.769070
vt 0.184577 0.777163
vt 0.181907 0.785061
vt 0.178386 0.792685
vt 0.174049 0.799963
vt 0.168938 0.806824
vt 0.163101 0.813204
vt 0.156596 0.819039
vt 0.149484 0.824274
vt 0.141834 0.828859
vt 0.133720 0.832749
vt 0.125220 0.835907
vt 0.116416 0.838303
vt 0.107393 0.839913
vt 0.098237 0.840722
vt 0.089037 0.840722
vt 0.079881 0.839913
vt 0.070858 0.838303
vt 0.062054 0.835907
vt 0.053554 0.832749
vt 0.045440 0.828859
vt 0.037790 0.824274
vt 0.030678 0.819039
vt 0.024173 0.813204
vt 0.375000 0.000000
vt 0.375000 0.672740
vt 0.000000 0.672740
vt 0.187500 0.420462
vt 0.196689 0.420057
vt 0.205790 0.418846
vt 0.214714 0.416841
vt 0.223376 0.414061
vt 0.231693 0.410533
vt 0.239585 0.406290
vt 0.246974 0.401374
vt 0.253791 0.395832
vt 0.259970 0.389718
vt 0.265450 0.383089
vt 0.270180 0.376011
vt 0.274114 0.368551
vt 0.277213 0.360781
vt 0.279449 0.352776
vt 0.280798 0.344613
vt 0.281250 0.336370
vt 0.280798 0.328127
vt 0.279449 0.319964
vt 0.277213 0.311959
vt 0.274114 0.304189
vt 0.270180 0.296729
vt 0.265450 0.289650
vt 0.259970 0.283022
vt 0.253791 0.276907
vt 0.246974 0.271365
vt 0.239585 0.266449
vt 0.231693 0.262207
vt 0.223377 0.258678
vt 0.214714 0.255898
vt 0.205790 0.253893
vt 0.196689 0.252682
vt 0.187500 0.252277
vt 0.000000 0.000000
vt 1.000000 0.655900
vt 0.875000 0.655900
vt 0.875000 0.000000
vt 1.000000 0.000000
vt 1.000000 0.991932
vt 0.875000 0.991932
vt 0.875000 0.655900
vt 1.000000 0.655900
vt 0.375000 0.672740
vt 0.375000 0.000000
vt 0.750000 0.000000
vt 0.750000 0.672740
vt 0.750000 0.666667
vt 0.875000 0.666667
vt 0.875000 1.000000
vt 0.750000 1.000000
vt 0.875000 0.666667
vt 0.750000 0.666667
vt 0.750000 0.000000
vt 0.875000 0.000000
vt 0.178311 0.252682
vt 0.169210 0.253893
vt 0.160286 0.255898
vt 0.151623 0.258678
vt 0.143307 0.262207
vt 0.135415 0.266449
vt 0.128026 0.271365
vt 0.121209 0.276907
vt 0.115030 0.283022
vt 0.109550 0.289651
vt 0.104820 0.296729
vt 0.100886 0.304189
vt 0.097787 0.311959
vt 0.095551 0.319964
vt 0.094201 0.328127
vt 0.093750 0.336370
vt 0.094201 0.344612
vt 0.095551 0.352775
vt 0.097787 0.360781
vt 0.100886 0.368551
vt 0.104820 0.376011
vt 0.109550 0.383089
vt 0.115030 0.389718
vt 0.121209 0.395832
vt 0.128026 0.401374
vt 0.135415 0.406290
vt 0.143307 0.410533
vt 0.151623 0.414061
vt 0.160286 0.416841
vt 0.169210 0.418846
vt 0.178311 0.420057
vn -0.0491 0.0000 0.9988
vn -0.1467 0.0000 0.9892
vn -0.2430 0.0000 0.9700
vn -0.3369 0.0000 0.9415
vn -0.4276 0.0000 0.9040
vn -0.5141 0.0000 0.8577
vn -0.5957 0.0000 0.8032
vn -0.6716 0.0000 0.7410
vn -0.7410 0.0000 0.6716
vn -0.8032 0.0000 0.5957
vn -0.8577 0.0000 0.5141
vn -0.9040 0.0000 0.4276
vn -0.9415 0.0000 0.3369
vn -0.9700 0.0000 0.2430
vn -0.9892 0.0000 0.1467
vn -0.9988 0.0000 0.0491
vn -0.9988 0.0000 -0.0491
vn -0.9892 0.0000 -0.1467
vn -0.9700 0.0000 -0.2430
vn -0.9415 0.0000 -0.3369
vn -0.9040 0.0000 -0.4276
vn -0.8577 0.0000 -0.5141
vn -0.8032 0.0000 -0.5957
vn -0.7410 0.0000 -0.6716
vn -0.6716 0.0000 -0.7410
vn -0.5957 0.0000 -0.8032
vn -0.5141 0.0000 -0.8577
vn -0.4276 0.0000 -0.9040
vn -0.3369 0.0000 -0.9415
vn -0.2430 0.0000 -0.9700
vn -0.1467 0.0000 -0.9892
vn -0.0491 0.0000 -0.9988
vn 0.0491 0.0000 -0.9988
vn 0.1467 0.0000 -0.9892
vn 0.2430 0.0000 -0.9700
vn 0.3369 0.0000 -0.9415
vn 0.4276 -0.0000 -0.9040
vn 0.5141 0.0000 -0.8577
vn 0.5957 0.0000 -0.8032
vn 0.6716 0.0000 -0.7410
vn 0.7410 0.0000 -0.6716
vn 0.8032 -0.0000 -0.5957
vn 0.8577 0.0000 -0.5141
vn 0.9040 0.0000 -0.4276
vn 0.9415 0.0000 -0.3369
vn 0.9700 0.0000 -0.2430
vn 0.9892 0.0000 -0.1467
vn 0.9988 0.0000 -0.0491
vn 0.9988 0.0000 0.0491
vn 0.9892 0.0000 0.1467
vn 0.9700 0.0000 0.2430
vn 0.9415 0.0000 0.3369
vn 0.9040 0.0000 0.4276
vn 0.8577 0.0000 0.5141
vn 0.8032 0.0000 0.5957
vn 0.7410 0.0000 0.6716
vn 0.6716 0.0000 0.7410
vn 0.5957 0.0000 0.8032
vn 0.5141 0.0000 0.8577
vn 0.4276 0.0000 0.9040
vn 0.3369 0.0000 0.9415
vn 0.2430 0.0000 0.9700
vn 0.1467 0.0000 0.9892
vn 0.0491 0.0000 0.9988
vn 0.0000 1.0000 0.0000
vn 0.0000 0.0000 1.0000
vn -1.0000 0.0000 0.0000
vn 0.0000 -1.0000 0.0000
vn 1.0000 0.0000 0.0000
vn 0.0000 0.0000 -1.0000
usemtl Material
s off
f 1/1/1 2/2/1 113/3/1 106/4/1
f 2/2/2 3/5/2 114/6/2 113/3/2
f 3/5/3 4/7/3 85/8/3 114/6/3
f 4/7/4 5/9/4 87/10/4 85/8/4
f 5/9/5 6/11/5 77/12/5 87/10/5
f 6/11/6 7/13/6 73/14/6 77/12/6
f 7/13/7 8/15/7 130/16/7 73/14/7
f 8/15/8 9/17/8 129/18/8 130/16/8
f 9/17/9 10/19/9 117/20/9 129/18/9
f 10/21/10 11/22/10 116/23/10 117/24/10
f 11/22/11 12/25/11 115/26/11 116/23/11
f 12/25/12 13/27/12 84/28/12 115/26/12
f 13/27/13 14/29/13 78/30/13 84/28/13
f 14/29/14 15/31/14 76/32/14 78/30/14
f 15/31/15 16/33/15 75/34/15 76/32/15
f 16/33/16 17/35/16 88/36/16 75/34/16
f 17/35/17 18/37/17 83/38/17 88/36/17
f 18/37/18 19/39/18 79/40/18 83/38/18
f 19/39/19 20/41/19 80/42/19 79/40/19
f 20/41/20 21/43/20 82/44/20 80/42/20
f 21/43/21 22/45/21 81/46/21 82/44/21
f 22/45/22 23/47/22 90/48/22 81/46/22
f 23/47/23 24/49/23 91/50/23 90/48/23
f 24/49/24 25/51/24 134/52/24 91/50/24
f 25/53/25 26/54/25 135/55/25 134/56/25
f 26/54/26 27/57/26 136/58/26 135/55/26
f 27/57/27 28/59/27 123/60/27 136/58/27
f 28/59/28 29/61/28 124/62/28 123/60/28
f 29/61/29 30/63/29 125/64/29 124/62/29
f 30/63/30 31/65/30 122/66/30 125/64/30
f 31/65/31 32/67/31 109/68/31 122/66/31
f 32/67/32 33/69/32 110/70/32 109/68/32
f 33/69/33 34/71/33 112/72/33 110/70/33
f 34/71/34 35/73/34 120/74/34 112/72/34
f 35/73/35 36/75/35 118/76/35 120/74/35
f 36/75/36 37/77/36 121/78/36 118/76/36
f 37/77/37 38/79/37 133/80/37 121/78/37
f 38/79/38 39/81/38 132/82/38 133/80/38
f 39/81/39 40/83/39 131/84/39 132/82/39
f 40/85/40 41/86/40 111/87/40 131/88/40
f 41/86/41 42/89/41 107/90/41 111/87/41
f 42/89/42 43/91/42 108/92/42 107/90/42
f 43/91/43 44/93/43 126/94/43 108/92/43
f 44/93/44 45/95/44 127/96/44 126/94/44
f 45/95/45 46/97/45 119/98/45 127/96/45
f 46/97/46 47/99/46 128/100/46 119/98/46
f 47/99/47 48/101/47 89/102/47 128/100/47
f 48/101/48 49/103/48 74/104/48 89/102/48
f 49/103/49 50/105/49 102/106/49 74/104/49
f 50/105/50 51/107/50 94/108/50 102/106/50
f 51/107/51 52/109/51 101/110/51 94/108/51
f 52/109/52 53/111/52 100/112/52 101/110/52
f 53/111/53 54/113/53 93/114/53 100/112/53
f 54/113/54 55/115/54 92/116/54 93/114/54
f 55/115/55 56/117/55 95/118/55 92/116/55
f 56/117/56 57/119/56 96/120/56 95/118/56
f 57/121/57 58/122/57 97/123/57 96/124/57
f 58/122/58 59/125/58 86/126/58 97/123/58
f 59/125/59 60/127/59 99/128/59 86/126/59
f 60/127/60 61/129/60 98/130/60 99/128/60
f 61/129/61 62/131/61 104/132/61 98/130/61
f 62/131/62 63/133/62 103/134/62 104/132/62
f 63/133/63 64/135/63 105/136/63 103/134/63
f 64/135/64 1/1/64 106/4/64 105/136/64
f 1/137/65 64/138/65 63/139/65 62/140/65 61/141/65 60/142/65 59/143/65 58/144/65 57/145/65 56/146/65 55/147/65 54/148/65 53/149/65 52/150/65 51/151/65 50/152/65 49/153/65 48/154/65 47/155/65 46/156/65 45/157/65 44/158/65 43/159/65 42/160/65 41/161/65 40/162/65 39/163/65 38/164/65 37/165/65 36/166/65 35/167/65 34/168/65 33/169/65 32/170/65 31/171/65 30/172/65 29/173/65 28/174/65 27/175/65 26/176/65 25/177/65 24/178/65 23/179/65 22/180/65 21/181/65 20/182/65 19/183/65 18/184/65 17/185/65 16/186/65 15/187/65 14/188/65 13/189/65 12/190/65 11/191/65 10/192/65 9/193/65 8/194/65 7/195/65 6/196/65 5/197/65 4/198/65 3/199/65 2/200/65
f 65/201/65 69/202/65 71/203/65 74/204/65 102/205/65 94/206/65 101/207/65 100/208/65 93/209/65 92/210/65 95/211/65 96/212/65 97/213/65 86/214/65 99/215/65 98/216/65 104/217/65 103/218/65 105/219/65 106/220/65 113/221/65 114/222/65 85/223/65 87/224/65 77/225/65 73/226/65 130/227/65 129/228/65 117/229/65 116/230/65 115/231/65 84/232/65 78/233/65 76/234/65 75/235/65 88/236/65 67/237/65
f 68/238/66 67/239/66 71/240/66 72/241/66
f 72/242/67 71/243/67 69/244/67 70/245/67
f 70/246/68 66/247/68 68/248/68 72/249/68
f 66/250/69 65/251/69 67/252/69 68/253/69
f 70/254/70 69/255/70 65/256/70 66/257/70
f 67/237/65 88/236/65 83/258/65 79/259/65 80/260/65 82/261/65 81/262/65 90/263/65 91/264/65 134/265/65 135/266/65 136/267/65 123/268/65 124/269/65 125/270/65 122/271/65 109/272/65 110/273/65 112/274/65 120/275/65 118/276/65 121/277/65 133/278/65 132/279/65 131/280/65 111/281/65 107/282/65 108/283/65 126/284/65 127/285/65 119/286/65 128/287/65 89/288/65 74/204/65 71/203/65
