# Blender v2.83.2 OBJ File: 'lvl11.blend'
# www.blender.org
mtllib lvl11.mtl
o Cube_Cube.002
v -2.577154 -0.082594 0.150000
v -2.606418 -0.082594 0.147118
v -2.606418 0.004307 0.147118
v -2.577154 0.004307 0.150000
v -2.634557 -0.082594 0.138582
v -2.634557 0.004307 0.138582
v -2.660490 -0.082594 0.124721
v -2.660490 0.004307 0.124721
v -2.683220 -0.082594 0.106066
v -2.683220 0.004307 0.106066
v -2.701875 -0.082594 0.083336
v -2.701875 0.004307 0.083336
v -2.715736 -0.082594 0.057403
v -2.715736 0.004307 0.057403
v -2.724272 -0.082594 0.029264
v -2.724272 0.004307 0.029264
v -2.727154 -0.082594 -0.000000
v -2.727154 0.004307 -0.000000
v -2.724272 -0.082594 -0.029263
v -2.724272 0.004307 -0.029263
v -2.715736 -0.082594 -0.057402
v -2.715736 0.004307 -0.057402
v -2.701875 -0.082594 -0.083335
v -2.701875 0.004307 -0.083335
v -2.683220 -0.082594 -0.106066
v -2.683220 0.004307 -0.106066
v -2.660490 -0.082594 -0.124720
v -2.660490 0.004307 -0.124720
v -2.634557 -0.082594 -0.138582
v -2.634557 0.004307 -0.138582
v -2.606418 -0.082594 -0.147118
v -2.606418 0.004307 -0.147118
v -2.577154 -0.082594 -0.150000
v -2.577154 0.004307 -0.150000
v -2.547891 -0.082594 -0.147118
v -2.547891 0.004307 -0.147118
v -2.519751 -0.082594 -0.138582
v -2.519751 0.004307 -0.138582
v -2.493818 -0.082594 -0.124720
v -2.493818 0.004307 -0.124720
v -2.471088 -0.082594 -0.106066
v -2.471088 0.004307 -0.106066
v -2.452434 -0.082594 -0.083335
v -2.452434 0.004307 -0.083335
v -2.438572 -0.082594 -0.057402
v -2.438572 0.004307 -0.057402
v -2.430036 -0.082594 -0.029263
v -2.430036 0.004307 -0.029263
v -2.427154 -0.082594 -0.000000
v -2.427154 0.004307 -0.000000
v -2.430036 -0.082594 0.029264
v -2.430036 0.004307 0.029264
v -2.438572 -0.082594 0.057403
v -2.438572 0.004307 0.057403
v -2.452434 -0.082594 0.083336
v -2.452434 0.004307 0.083336
v -2.471088 -0.082594 0.106066
v -2.471088 0.004307 0.106066
v -2.493819 -0.082594 0.124721
v -2.493819 0.004307 0.124721
v -2.519752 -0.082594 0.138582
v -2.519752 0.004307 0.138582
v -2.547891 -0.082594 0.147118
v -2.547891 0.004307 0.147118
v 2.856015 -0.095693 -0.800000
v 2.856015 0.204307 -0.800000
v 2.856015 0.204307 0.800000
v 2.856015 -0.095693 0.800000
v 2.106014 0.204307 0.800000
v 2.106015 -0.095693 0.800000
v -2.883144 -0.095693 0.800000
v -2.883144 0.204307 0.800000
v -2.883144 0.204307 -0.800000
v -2.883144 -0.095693 -0.800000
v -2.133144 0.204307 -0.800000
v -2.133144 -0.095693 -0.800000
v 2.106015 -0.095693 0.148000
v 2.106015 -0.095693 -0.148000
v 2.106015 -0.095693 -0.800000
v -2.823144 0.204307 -0.740000
v -2.823144 0.204307 0.740000
v -2.823144 0.004307 0.740000
v -2.823144 0.004307 -0.740000
v 2.796015 0.204307 -0.740000
v 2.796015 0.204307 0.740000
v 2.106014 0.204307 0.740000
v -2.133144 0.204307 -0.740000
v -2.133144 0.004307 0.148000
v -2.133144 0.004307 -0.148000
v -2.133144 0.004307 -0.444000
v -2.133144 0.004307 -0.740000
v 2.796015 0.004307 -0.740000
v 2.796015 0.004307 0.740000
v 2.106015 0.204307 -0.740000
v 2.106015 0.004307 -0.740000
v -2.133144 0.204307 0.740000
v -2.133144 0.004307 0.740000
v 2.106015 0.204307 -0.800000
v 2.106014 0.004307 0.740000
v 2.106015 0.004307 -0.444000
v 2.106015 0.004307 -0.148000
v 2.106014 0.004307 0.148000
v 2.106014 0.004307 0.444000
v -2.133144 0.204307 0.800000
v -2.133144 -0.095693 0.800000
v -2.133144 -0.095693 0.148001
v -2.133144 0.004307 0.444000
v -2.133144 -0.095693 -0.148000
v 1.506015 -0.095693 0.148000
v 1.506015 -0.095693 -0.148000
v 1.506015 0.004307 -0.148000
v 1.806014 0.004307 -0.148000
v 1.806014 0.004307 0.148000
v 1.506015 0.004307 0.148000
v 1.506015 0.104307 -0.148000
v 1.506015 0.104307 0.148000
v -1.833144 -0.095693 0.148000
v -1.833144 -0.095693 -0.148000
v -1.833144 0.004307 -0.148000
v -1.833144 0.004307 0.148000
v -0.608467 0.004307 -0.148000
v 0.103893 0.004307 -0.148000
v 0.103892 0.004307 0.148000
v 0.103893 -0.095693 -0.148000
v 0.103893 -0.095693 0.148000
v -0.608466 -0.095693 0.148000
v -0.608466 0.004307 0.148000
v -0.608465 -0.095693 -0.148000
vt 0.576980 0.922815
vt 0.576980 0.916334
vt 0.599264 0.916334
vt 0.599264 0.922815
vt 0.576980 0.909133
vt 0.599264 0.909133
vt 0.576980 0.901489
vt 0.599264 0.901489
vt 0.576980 0.893694
vt 0.599264 0.893694
vt 0.576980 0.886050
vt 0.599264 0.886050
vt 0.576980 0.878849
vt 0.599264 0.878849
vt 0.576980 0.872368
vt 0.599264 0.872368
vt 0.230792 0.928327
vt 0.230792 0.922815
vt 0.253076 0.922815
vt 0.253076 0.928327
vt 0.230792 0.916335
vt 0.253076 0.916335
vt 0.230792 0.909134
vt 0.253076 0.909134
vt 0.230792 0.901489
vt 0.253076 0.901489
vt 0.230792 0.893694
vt 0.253076 0.893694
vt 0.230792 0.886050
vt 0.253076 0.886050
vt 0.230792 0.878849
vt 0.253076 0.878849
vt 0.230792 0.872368
vt 0.253076 0.872368
vt 0.230792 0.866857
vt 0.253076 0.866857
vt 0.230792 0.860376
vt 0.253076 0.860376
vt 0.230792 0.853175
vt 0.253076 0.853175
vt 0.230792 0.845530
vt 0.253076 0.845530
vt 0.230792 0.837736
vt 0.253076 0.837736
vt 0.230792 0.830091
vt 0.253076 0.830091
vt 0.230792 0.822890
vt 0.253076 0.822890
vt 0.230792 0.816409
vt 0.253076 0.816409
vt 0.576980 0.872368
vt 0.576980 0.866857
vt 0.599264 0.866857
vt 0.599264 0.872368
vt 0.576980 0.860376
vt 0.599264 0.860376
vt 0.576980 0.853175
vt 0.599264 0.853175
vt 0.576980 0.845530
vt 0.599264 0.845530
vt 0.576980 0.837736
vt 0.599264 0.837736
vt 0.576980 0.830091
vt 0.599264 0.830091
vt 0.576980 0.822890
vt 0.599264 0.822890
vt 0.576980 0.816409
vt 0.599264 0.816409
vt 0.576980 0.928326
vt 0.599264 0.928326
vt 0.788916 0.303253
vt 0.796455 0.303253
vt 0.803849 0.304774
vt 0.810813 0.307757
vt 0.817082 0.312087
vt 0.822413 0.317599
vt 0.826601 0.324079
vt 0.829486 0.331281
vt 0.830957 0.338925
vt 0.830958 0.346719
vt 0.829487 0.354364
vt 0.826603 0.361565
vt 0.822415 0.368046
vt 0.817084 0.373557
vt 0.810817 0.377888
vt 0.803852 0.380870
vt 0.796458 0.382391
vt 0.788919 0.382391
vt 0.781526 0.380870
vt 0.774561 0.377887
vt 0.768293 0.373557
vt 0.762962 0.368045
vt 0.758773 0.361564
vt 0.755888 0.354363
vt 0.754417 0.346719
vt 0.754417 0.338924
vt 0.755887 0.331280
vt 0.758772 0.324079
vt 0.762960 0.317598
vt 0.768290 0.312087
vt 0.774558 0.307757
vt 0.781523 0.304774
vt 0.253806 0.424109
vt 0.330737 0.424109
vt 0.330737 0.751950
vt 0.253806 0.751950
vt 0.933922 0.342450
vt 0.856991 0.342450
vt 0.856991 0.188775
vt 0.933922 0.188775
vt 0.677486 0.000000
vt 0.754417 0.000000
vt 0.754417 0.327839
vt 0.677486 0.327839
vt 0.076931 0.816409
vt 0.153861 0.816409
vt 0.153861 0.970084
vt 0.076931 0.970084
vt 0.000000 0.000000
vt 0.192327 0.000000
vt 0.192327 0.172824
vt 0.192327 0.251284
vt 0.192327 0.424109
vt 0.000000 0.424109
vt 0.805704 0.000000
vt 0.805704 0.303253
vt 0.754417 0.303253
vt 0.754417 0.000000
vt 0.630828 0.408205
vt 0.630827 0.800505
vt 0.615445 0.816409
vt 0.615445 0.392301
vt 0.807723 0.800505
vt 0.807723 0.816409
vt 0.823105 0.408205
vt 0.823105 0.800505
vt 0.807723 0.816409
vt 0.807723 0.392301
vt 1.000000 0.800505
vt 1.000000 0.816409
vt 0.000000 0.424109
vt 0.024609 0.620259
vt 0.025348 0.628016
vt 0.027536 0.635474
vt 0.031090 0.642348
vt 0.035872 0.648374
vt 0.041700 0.653318
vt 0.048348 0.656993
vt 0.055562 0.659255
vt 0.063064 0.660019
vt 0.070566 0.659255
vt 0.077781 0.656993
vt 0.084429 0.653318
vt 0.090257 0.648374
vt 0.095039 0.642348
vt 0.098593 0.635474
vt 0.100781 0.628016
vt 0.101520 0.620259
vt 0.176895 0.581029
vt 0.176895 0.659489
vt 0.176895 0.737949
vt 0.176895 0.816409
vt 0.000000 0.816409
vt 0.856991 0.000000
vt 0.856991 0.303251
vt 0.805704 0.303251
vt 0.805704 0.000000
vt 0.705149 0.816409
vt 0.705149 0.957790
vt 0.653861 0.957790
vt 0.653861 0.816409
vt 0.756436 0.816409
vt 0.756436 0.957790
vt 0.705149 0.957790
vt 0.705149 0.816409
vt 0.807723 0.392301
vt 0.807723 0.408205
vt 0.807723 0.957790
vt 0.756436 0.957790
vt 0.756436 0.816409
vt 0.807723 0.816409
vt 0.000000 0.816409
vt 0.076931 0.816409
vt 0.076931 0.970084
vt 0.000000 0.970084
vt 0.500591 0.392301
vt 0.500591 0.313840
vt 0.500591 0.235380
vt 0.500591 0.156920
vt 0.500591 0.078460
vt 0.500591 0.000000
vt 0.677486 0.000000
vt 0.677486 0.392301
vt 0.423119 0.937711
vt 0.423119 0.950005
vt 0.346188 0.950005
vt 0.346188 0.816409
vt 0.371832 0.816409
vt 0.371832 0.877060
vt 0.371832 0.937711
vt 1.000000 0.392301
vt 1.000000 0.408205
vt 0.884653 0.950004
vt 0.807723 0.950004
vt 0.807723 0.816409
vt 0.833366 0.816409
vt 0.833366 0.877060
vt 0.833366 0.937710
vt 0.884653 0.937710
vt 0.423119 0.816409
vt 0.423119 0.643585
vt 0.423119 0.565125
vt 0.423119 0.392301
vt 0.615445 0.392301
vt 0.615445 0.816409
vt 0.153861 0.816409
vt 0.230792 0.816409
vt 0.230792 0.970084
vt 0.153861 0.970084
vt 0.653861 0.957790
vt 0.602574 0.957790
vt 0.602574 0.816409
vt 0.653861 0.816409
vt 0.346188 0.172824
vt 0.346188 0.251284
vt 0.474406 0.816409
vt 0.500049 0.816409
vt 0.500049 0.950005
vt 0.423119 0.950005
vt 0.423119 0.937711
vt 0.474406 0.937711
vt 0.474406 0.877060
vt 0.910297 0.816409
vt 0.935941 0.816409
vt 0.935941 0.939349
vt 0.910297 0.939349
vt 0.910297 0.877880
vt 0.551336 0.816409
vt 0.576980 0.816409
vt 0.576980 0.950004
vt 0.500049 0.950004
vt 0.500049 0.937710
vt 0.551336 0.937710
vt 0.551336 0.877060
vt 0.932896 0.000000
vt 0.958539 0.000000
vt 0.958539 0.061470
vt 0.958539 0.122940
vt 0.932896 0.122940
vt 0.346188 0.235380
vt 0.346188 0.156920
vt 0.423680 0.156920
vt 0.423680 0.235380
vt 0.100781 0.612502
vt 0.098593 0.605043
vt 0.095039 0.598169
vt 0.090257 0.592144
vt 0.084429 0.587199
vt 0.077781 0.583525
vt 0.070567 0.581263
vt 0.063064 0.580499
vt 0.055562 0.581263
vt 0.048348 0.583525
vt 0.041700 0.587199
vt 0.035872 0.592144
vt 0.031090 0.598169
vt 0.027536 0.605043
vt 0.025348 0.612502
vt 0.176895 0.424109
vt 0.176895 0.502569
vt 0.884653 0.939349
vt 0.910297 0.939349
vt 0.910297 1.000000
vt 0.884653 1.000000
vt 0.932896 0.183591
vt 0.932896 0.122940
vt 0.958539 0.122940
vt 0.958539 0.183591
vt 0.703130 0.388489
vt 0.703130 0.327839
vt 0.728773 0.327839
vt 0.728773 0.388489
vt 0.884653 0.939349
vt 0.984183 0.122940
vt 0.346188 0.643585
vt 0.346188 0.565125
vt 0.856601 0.364723
vt 0.830958 0.364723
vt 0.830958 0.303253
vt 0.856601 0.303254
vt 0.253806 0.581029
vt 0.253806 0.659489
vt 0.754417 0.389309
vt 0.728773 0.389309
vt 0.728773 0.327839
vt 0.754417 0.327839
vt 0.935941 1.000000
vt 0.910297 1.000000
vt 0.910297 0.939349
vt 0.935941 0.939349
vt 0.677486 0.327839
vt 0.677486 0.388489
vt 0.935941 0.816409
vt 0.961584 0.816409
vt 0.961584 0.962372
vt 0.935941 0.962371
vt 0.932896 0.188775
vt 0.856991 0.188775
vt 0.856991 0.000000
vt 0.932896 0.000000
vt 0.253806 0.751950
vt 0.329711 0.751950
vt 0.329711 0.940774
vt 0.253806 0.940774
vt 0.959565 0.334737
vt 0.933922 0.334738
vt 0.933922 0.188775
vt 0.959565 0.188775
vn 0.0980 0.0000 -0.9952
vn 0.2903 0.0000 -0.9569
vn 0.4714 0.0000 -0.8819
vn 0.6344 0.0000 -0.7730
vn 0.7730 0.0000 -0.6344
vn 0.8819 0.0000 -0.4714
vn 0.9569 0.0000 -0.2903
vn 0.9952 0.0000 -0.0980
vn 0.9952 0.0000 0.0980
vn 0.9569 0.0000 0.2903
vn 0.8819 0.0000 0.4714
vn 0.7730 0.0000 0.6344
vn 0.6344 0.0000 0.7730
vn 0.4714 0.0000 0.8819
vn 0.2903 0.0000 0.9569
vn 0.0980 0.0000 0.9952
vn -0.0980 0.0000 0.9952
vn -0.2903 0.0000 0.9569
vn -0.4714 0.0000 0.8819
vn -0.6344 0.0000 0.7730
vn -0.7730 0.0000 0.6344
vn -0.8819 0.0000 0.4714
vn -0.9569 0.0000 0.2903
vn -0.9952 0.0000 0.0980
vn -0.9952 0.0000 -0.0980
vn -0.9569 0.0000 -0.2903
vn -0.8819 0.0000 -0.4714
vn -0.7730 0.0000 -0.6344
vn -0.6344 0.0000 -0.7730
vn -0.4714 0.0000 -0.8819
vn -0.2903 0.0000 -0.9569
vn -0.0980 0.0000 -0.9952
vn 0.0000 1.0000 0.0000
vn 1.0000 0.0000 0.0000
vn 0.0000 0.0000 1.0000
vn -1.0000 0.0000 0.0000
vn 0.0000 0.0000 -1.0000
vn 0.0000 -1.0000 -0.0000
vn 0.3162 0.9487 0.0000
usemtl None
s 1
f 1/1/1 2/2/1 3/3/1 4/4/1
f 2/2/2 5/5/2 6/6/2 3/3/2
f 5/5/3 7/7/3 8/8/3 6/6/3
f 7/7/4 9/9/4 10/10/4 8/8/4
f 9/9/5 11/11/5 12/12/5 10/10/5
f 11/11/6 13/13/6 14/14/6 12/12/6
f 13/13/7 15/15/7 16/16/7 14/14/7
f 15/17/8 17/18/8 18/19/8 16/20/8
f 17/18/9 19/21/9 20/22/9 18/19/9
f 19/21/10 21/23/10 22/24/10 20/22/10
f 21/23/11 23/25/11 24/26/11 22/24/11
f 23/25/12 25/27/12 26/28/12 24/26/12
f 25/27/13 27/29/13 28/30/13 26/28/13
f 27/29/14 29/31/14 30/32/14 28/30/14
f 29/31/15 31/33/15 32/34/15 30/32/15
f 31/33/16 33/35/16 34/36/16 32/34/16
f 33/35/17 35/37/17 36/38/17 34/36/17
f 35/37/18 37/39/18 38/40/18 36/38/18
f 37/39/19 39/41/19 40/42/19 38/40/19
f 39/41/20 41/43/20 42/44/20 40/42/20
f 41/43/21 43/45/21 44/46/21 42/44/21
f 43/45/22 45/47/22 46/48/22 44/46/22
f 45/47/23 47/49/23 48/50/23 46/48/23
f 47/51/24 49/52/24 50/53/24 48/54/24
f 49/52/25 51/55/25 52/56/25 50/53/25
f 51/55/26 53/57/26 54/58/26 52/56/26
f 53/57/27 55/59/27 56/60/27 54/58/27
f 55/59/28 57/61/28 58/62/28 56/60/28
f 57/61/29 59/63/29 60/64/29 58/62/29
f 59/63/30 61/65/30 62/66/30 60/64/30
f 61/65/31 63/67/31 64/68/31 62/66/31
f 63/69/32 1/1/32 4/4/32 64/70/32
f 1/71/33 63/72/33 61/73/33 59/74/33 57/75/33 55/76/33 53/77/33 51/78/33 49/79/33 47/80/33 45/81/33 43/82/33 41/83/33 39/84/33 37/85/33 35/86/33 33/87/33 31/88/33 29/89/33 27/90/33 25/91/33 23/92/33 21/93/33 19/94/33 17/95/33 15/96/33 13/97/33 11/98/33 9/99/33 7/100/33 5/101/33 2/102/33
f 65/103/34 66/104/34 67/105/34 68/106/34
f 68/107/35 67/108/35 69/109/35 70/110/35
f 71/111/36 72/112/36 73/113/36 74/114/36
f 74/115/37 73/116/37 75/117/37 76/118/37
f 68/119/38 70/120/38 77/121/38 78/122/38 79/123/38 65/124/38
f 80/125/34 81/126/34 82/127/34 83/128/34
f 84/129/33 85/130/33 67/131/33 66/132/33
f 85/130/33 86/133/33 69/134/33 67/131/33
f 81/135/33 80/136/33 73/137/33 72/138/33
f 80/136/33 87/139/33 75/140/33 73/137/33
f 82/141/33 18/142/33 20/143/33 22/144/33 24/145/33 26/146/33 28/147/33 30/148/33 32/149/33 34/150/33 36/151/33 38/152/33 40/153/33 42/154/33 44/155/33 46/156/33 48/157/33 50/158/33 88/159/33 89/160/33 90/161/33 91/162/33 83/163/33
f 85/164/36 84/165/36 92/166/36 93/167/36
f 84/168/35 94/169/35 95/170/35 92/171/35
f 81/172/37 96/173/37 97/174/37 82/175/37
f 98/176/33 94/177/33 84/129/33 66/132/33
f 99/178/37 86/179/37 85/180/37 93/181/37
f 79/182/37 98/183/37 66/184/37 65/185/37
f 95/186/33 100/187/33 101/188/33 102/189/33 103/190/33 99/191/33 93/192/33 92/193/33
f 96/194/34 104/195/34 105/196/34 106/197/34 88/198/34 107/199/34 97/200/34
f 104/201/33 96/202/33 81/135/33 72/138/33
f 98/203/36 79/204/36 78/205/36 101/206/36 100/207/36 95/208/36 94/209/36
f 76/210/38 108/211/38 106/212/38 105/213/38 71/214/38 74/215/38
f 105/216/35 104/217/35 72/218/35 71/219/35
f 91/220/35 87/221/35 80/222/35 83/223/35
f 78/122/38 77/121/38 109/224/38 110/225/38
f 89/226/34 108/227/34 76/228/34 75/229/34 87/230/34 91/231/34 90/232/34
f 101/233/37 78/234/37 110/235/37 111/236/37 112/237/37
f 102/238/36 77/239/36 70/240/36 69/241/36 86/242/36 99/243/36 103/244/36
f 77/245/35 102/246/35 113/247/35 114/248/35 109/249/35
f 115/250/39 116/251/39 113/252/39 112/253/39
f 88/159/33 50/158/33 52/254/33 54/255/33 56/256/33 58/257/33 60/258/33 62/259/33 64/260/33 4/261/33 3/262/33 6/263/33 8/264/33 10/265/33 12/266/33 14/267/33 16/268/33 18/142/33 82/141/33 97/269/33 107/270/33
f 120/271/34 117/272/34 118/273/34 119/274/34
f 125/275/34 124/276/34 122/277/34 123/278/34
f 102/189/33 101/188/33 112/253/33 113/252/33
f 111/279/36 114/280/36 116/281/36 115/282/36
f 111/236/37 115/283/37 112/237/37
f 113/247/35 116/284/35 114/248/35
f 118/285/38 117/286/38 106/212/38 108/211/38
f 117/287/35 120/288/35 88/289/35 106/290/35
f 120/291/33 119/292/33 89/160/33 88/159/33
f 119/293/37 118/294/37 108/295/37 89/296/37
f 126/297/36 127/298/36 121/299/36 128/300/36
f 109/301/36 114/280/36 111/279/36 110/302/36
f 127/303/35 126/304/35 125/305/35 123/306/35
f 121/307/33 127/308/33 123/309/33 122/310/33
f 126/311/38 128/312/38 124/313/38 125/314/38
f 128/315/37 121/316/37 122/317/37 124/318/37
